<?xml version="1.0" encoding="utf-8"?>
<!-- Generator: Adobe Illustrator 25.4.1, SVG Export Plug-In . SVG Version: 6.00 Build 0)  -->
<svg version="1.1" id="Layer_1" xmlns="http://www.w3.org/2000/svg" xmlns:xlink="http://www.w3.org/1999/xlink" x="0px" y="0px"
	 viewBox="0 0 695 545" style="enable-background:new 0 0 695 545;" xml:space="preserve">
<style type="text/css">
	.st0{fill:#F2AD5D;}
	.st1{fill:#E65941;}
	.st2{fill:#181C2C;}
	.st3{fill:#FDFDFD;}
</style>
<g>
	<path class="st0" d="M152.1,315.35c-1.14-0.81-2.18-2.12-3.42-2.36c-31.34-6.05-59.68-19.28-86.57-36
		c-17.06-10.61-32.7-22.8-43.79-39.97c-8.94-13.83-12.67-28.35-6.46-44.4c4.29-11.09,12.64-18.46,22.39-24.45
		c13.5-8.3,28.6-11.53,44.12-13.13c20.89-2.15,41.52,0.66,62.16,3.35c13.07,1.7,26.14,3.46,39.24,4.79
		c29.4,2.98,58.8,6.08,88.25,8.46c36.68,2.97,73.43,4.9,110.26,2.71c17.77-1.06,35.56-1.91,53.3-3.29
		c12.91-1.01,25.76-2.85,38.66-4.09c13.84-1.34,27.71-2.29,41.55-3.62c13.58-1.3,27.11-3.08,40.7-4.27
		c20.76-1.81,41.53-4.25,62.32-4.63c17.56-0.32,34.8,3.52,50.3,12.55c23.51,13.71,29.49,38.57,15.02,61.74
		c-11.59,18.56-28.43,31.63-46.45,43.19c-25.94,16.64-54.25,28.33-83.36,38.15c-1.39,0.47-2.91,0.55-4.37,0.81
		c-3.65-5.34-7.29-10.67-10.94-16.01c1.42-6.04,5.37-10.1,10.5-13.11c3.24-1.91,4.59-4.61,4.4-8.23c-0.26-4.96-0.64-9.91-0.8-14.88
		c-0.2-6.39-2.1-8.08-8.68-8.73c-6.2-0.61-12.33-1.84-18.49-2.79c2.82-3.86,5.64-7.72,8.69-11.89c-1.55-0.78-2.49-1.25-2.81-1.42
		c2.43-9.16,5.46-17.87,6.92-26.83c1.48-9.1,1.41-18.45,2.04-28.07c-32.18,0.11-61.45,11.09-91.34,19.92
		c-0.26-1.33-0.52-2.64-0.52-2.68c-7.07,0.25-13.6,0.82-20.1,0.62c-6.63-0.21-13.24-1.68-19.87-1.74
		c-30.15-0.29-60.33,0.44-90.45-0.63c-22.02-0.78-43.89,4.67-66.13,1.16c0.62,3.41-0.94,4.02-3.97,2.31
		c-0.98-0.56-1.92-1.3-2.98-1.6c-16.29-4.66-32.56-9.41-48.92-13.82c-10.46-2.82-21.18-3.79-32.42-3.2c0,3.04,0,5.67,0,8.29
		c-4.05,0.9-8.14,1.63-12.14,2.73c-12.56,3.46-24.7,7.94-35.05,16.15c-6.71,5.32-8.97,12.51-6.16,19.63
		c-0.08-10.59,5.27-17.52,13.66-22.3c12.38-7.05,25.76-11.37,39.74-13.92c0.9,13.99,2.22,27.9,6.47,41.39
		c0.38,1.19-1.05,2.95-1.92,5.13c2.76,3.74,6.09,8.27,9.42,12.8c-2.33,0.79-4.86,1.25-6.94,2.47c-1.67,0.98-3.98,2.87-3.99,4.38
		c-0.08,10.8-2.94,22.71,9.62,29.43c0.13,0.07,0.18,0.27,0.27,0.41c-8.87,5.46-14.17,14.07-20.03,22.62
		c1.39,0.31,2.52,0.56,4.21,0.94C155.28,311.66,153.69,313.5,152.1,315.35z M575.99,260.99c7.01-2.91,14.25-5.35,20.97-8.82
		c12.74-6.58,24.02-15.03,30.63-28.31c4.87-9.77,3.54-19.15-4.65-26.29c-4.8-4.18-10.48-7.73-16.33-10.27
		c-19.58-8.51-40.38-10.6-61.51-10.36c-1.48,0.02-2.96,0.23-4.45,0.35c5.86,2,11.73,2.63,17.52,3.72
		c14.37,2.73,28.98,5.14,41.53,13.27c17.37,11.25,20.11,24.15,8.3,40.18c-1.97,2.67-4,5.46-6.57,7.48
		c-8.33,6.53-16.93,12.73-25.42,19.05c-0.45,0.11-0.91,0.23-0.03,0.01C575.32,261.63,575.66,261.31,575.99,260.99z M544.5,162.57
		c-32.35,3.09-64.05,6.61-95.83,9.03c-31.68,2.41-63.42,4.22-95.17,5.36c-31.97,1.14-63.88-0.94-95.72-4.07
		c-31.56-3.11-63.14-5.96-94.71-8.92c-0.02,0.49-0.04,0.97-0.06,1.46C290.05,195.98,416.94,195.31,544.5,162.57z M159.77,178.99
		c-1.6-0.62-1.91-0.85-2.22-0.85c-25.81-0.19-50.8,3.41-73.18,17.36c-9.94,6.19-17.29,18.74-11.06,30.86
		c2.39,4.64,5.28,9.26,8.88,12.97c10.5,10.82,24.46,16.18,37.7,22.57c5.31,2.56,11.05,4.23,16.6,6.31c-2.56-2.87-5.67-4.5-8.43-6.6
		c-10.17-7.71-21.08-14.7-30.12-23.58c-13.6-13.36-11.81-28.53,3.41-40c10.11-7.62,21.67-12.34,33.95-15.04
		C142.96,181.32,150.79,180.43,159.77,178.99z M538.12,186.63c-0.14,0.39-0.29,0.78-0.43,1.16c1.55,0.39,3.1,0.8,4.66,1.15
		c11.85,2.63,23.65,5.28,34.42,11.31c13.42,7.52,16.09,18.43,6.71,30.5c-3.22,4.15-7.24,7.77-11.25,11.21
		c-4.01,3.45-8.46,6.37-13.35,10c1.56,0,2.23,0.05,2.88-0.01c0.65-0.07,1.34-0.15,1.93-0.41c10.98-4.75,21.03-10.79,28.06-20.86
		c8.12-11.63,6.91-20.55-4.87-28.45C572.19,192.37,555.33,188.75,538.12,186.63z"/>
	<path class="st1" d="M173.05,285.83c-0.09-0.14-0.14-0.35-0.27-0.41c-12.56-6.72-9.7-18.62-9.62-29.43
		c0.01-1.5,2.32-3.39,3.99-4.38c2.08-1.22,4.6-1.68,6.93-2.47c5.36-0.39,10.75-0.54,16.06-1.28c2.5-0.35,4.85-1.81,7.26-2.77
		c1.28-0.06,2.57-0.12,3.85-0.18c1.32,0.08,2.64,0.24,3.96,0.24c17.26,0,34.54-0.46,51.78,0.07c17.06,0.52,33.66,4.17,48.94,11.96
		c6.84,3.49,12.83,8.65,19.2,13.05c1.1,0.2,2.31,0.78,3.29,0.52c2.06-0.56,3.94-2.08,5.99-2.32c16.74-1.97,33.57-4.55,49.74,4.75
		c0.67-1.58,1.37-3.22,2.07-4.85c3.09-2.21,6.09-4.56,9.29-6.6c18.6-11.85,39.64-15.12,61-16.72c11.9-0.89,23.88-0.67,35.82-0.95
		c2.17,0.35,4.34,0.7,6.51,1.05c7.69,0.67,15.38,1.35,23.07,2.02c6.16,0.96,12.3,2.18,18.5,2.79c6.59,0.65,8.49,2.35,8.68,8.73
		c0.15,4.96,0.54,9.92,0.8,14.88c0.19,3.62-1.16,6.32-4.4,8.23c-5.12,3.01-9.08,7.07-10.5,13.11c-1.03,2.39-2.17,4.73-3.08,7.17
		c-3.73,9.95-6.52,20.35-11.24,29.8c-11.3,22.67-28.89,38.27-54.53,42.52c-9.93,1.65-20.22,1.18-30.34,1.67
		c-16.17-2.89-30.09-10.15-41.86-21.58c-1.3-1.26-2.69-2.43-4.04-3.65c-0.15-0.24-0.3-0.47-0.46-0.71c-0.5-1.05-0.96-2.12-1.52-3.14
		c-9.33-16.91-16.69-34.41-17.23-54.18c-0.05-1.87-2.91-5.11-4.65-5.24c-7.71-0.59-15.52-0.65-23.22-0.01
		c-1.77,0.15-4.51,3.73-4.67,5.89c-1.64,22.37-9.25,42.45-22.14,60.66c-1.06,1.21-2.12,2.42-3.19,3.63
		c-14.28,12.17-30.99,18.1-49.54,19.32c-1.66-0.11-3.32-0.24-4.98-0.33c-31.18-1.82-54.03-16.29-66.78-45.1
		c-4.62-10.44-7.47-21.64-11.55-32.34C178.24,294.57,175.41,290.29,173.05,285.83z M462.81,256.95
		c-11.59,1.46-21.66,2.44-31.62,4.11c-5.2,0.88-10.35,2.61-15.25,4.61c-22.24,9.1-30.95,25.08-27.22,48.86
		c3.88,24.76,16.26,42.28,41.38,48.94c14.57,3.86,29.21,3.31,43.21-2.03c6.68-2.55,13.13-6.55,18.63-11.16
		c15.69-13.15,22.11-31.26,24.78-50.85c2.56-18.75-5.79-32.16-23.92-37.22C482.68,259.38,472.01,258.5,462.81,256.95z
		 M267.15,366.11c12.63-0.37,28.3-4.46,40.09-18.24c7.69-8.98,11.89-19.43,14.17-30.92c4.58-23.06-2.34-38.74-23.4-48.95
		c-27.17-13.17-55.27-12.82-83.42-3.24c-11.58,3.94-16.75,13.37-17.65,24.91c-0.5,6.39,0.04,13.01,1.16,19.35
		C204.6,345.81,227.63,366.05,267.15,366.11z M530.17,276.5c1.92-2.71,2.96-4.17,4-5.64c-1.8-1.27-3.48-3.18-5.46-3.56
		c-1.19-0.23-2.84,1.93-4.29,3.01C526.02,272.02,527.61,273.74,530.17,276.5z M183.49,275.43c2.37-2,3.96-3.33,5.54-4.66
		c-1.5-1.11-3.03-3.13-4.5-3.09c-1.86,0.05-3.67,1.79-5.5,2.8C180.3,271.88,181.57,273.29,183.49,275.43z"/>
	<path class="st0" d="M210.13,141.12c2.36-8.29,4.18-16.78,7.17-24.83c8.57-23.06,17.98-45.8,26.31-68.94
		c4.53-12.58,13.6-19.75,25-24.93c13.2-6,27.17-9.03,41.42-11.64c28.58-5.24,56.93-4.16,85.19,1.36
		c14.75,2.89,29.11,7.49,41.06,17.21c3.1,2.53,6.3,5.83,7.66,9.45c9.58,25.54,18.76,51.23,27.9,76.94
		c2.64,7.43,4.74,15.05,7.54,24.07c-9.21-5.17-17.34-9.74-25.48-14.3c0.06-0.22,0.12-0.44,0.18-0.65
		c5.03,1.32,10.06,2.65,15.09,3.97c0.2-0.46,0.4-0.92,0.6-1.38c-7.11-3.13-14.04-6.81-21.37-9.3
		c-38.91-13.23-79.24-14.66-119.73-12.93c-16.71,0.72-33.34,3.71-49.97,5.92c-1.92,0.25-3.62,2.13-5.42,3.26
		c1.41,1.36,2.82,2.72,4.23,4.08c0.35,0.34,0.67,0.7,1.13,1.18c-2.7,1.39-5.29,2.72-7.88,4.05c-6,1.32-12.11,2.27-17.99,4.02
		C238.5,132,224.33,136.63,210.13,141.12z M465.17,112.1c-6.43-7.89-15.63-11.51-24.64-14.77c-23.17-8.39-47.36-12.12-71.88-13.26
		c-24.98-1.16-49.94-0.42-74.6,4.22c-12.01,2.26-23.85,5.36-36.31,8.2c1.06,2.58,1.58,3.84,1.8,4.39
		c7.14,1.07,13.29-3.47,20.03-0.87c-5.21,1.81-11.51,1.59-13.31,10.03c33.19-5.06,66.11-8.35,99.29-6.9
		c33.28,1.46,66.15,5.42,98.14,16.2c-0.74-1.76-1.59-3.42-2.94-4.17c-4.34-2.4-8.74-4.77-13.35-6.59
		c-27.38-10.82-56.31-13.05-85.26-14.32c-26.16-1.15-52.22,0.74-78.01,5.54c-0.94,0.17-1.98-0.23-2.97-0.36
		c-0.03-0.59-0.07-1.19-0.1-1.78c11.34-1.45,22.65-3.65,34.03-4.2C366.1,90.96,416.87,91.09,465.17,112.1z M289.37,77.12
		c27.89-4.97,55.64-6.33,83.58-4.54c28.05,1.8,55.05,8.45,81.93,16.85c-1.63-2.39-3.49-4.31-5.75-5.23
		c-10.13-4.1-20.28-8.18-30.6-11.76c-20.6-7.16-41.98-10.03-63.69-10.49c-20.72-0.43-41.12,2.17-61.23,7.15
		C289.7,70.07,288.56,72.4,289.37,77.12z M456.07,99.69c0.21-0.48,0.42-0.96,0.63-1.43c-0.97-0.81-1.91-1.66-2.93-2.41
		c-10.83-7.96-23.53-11.8-36.25-14.64c-28.63-6.4-57.67-9.94-87.08-7.07c-13.03,1.27-26.05,2.99-38.95,5.27
		c-4.1,0.72-9.51,1.38-11.34,8.23c29.93-4.81,59.39-6.66,88.97-5.36C398.94,83.57,428.1,88.61,456.07,99.69z M298.84,23.84
		c-0.03,0.58-0.07,1.15-0.1,1.73c3.26,1.1,6.57,3.26,9.77,3.09c8.74-0.47,17.41-2.6,26.14-2.82c13.45-0.34,26.93,0.35,40.39,0.61
		c-0.01,0.59-0.02,1.18-0.02,1.78c-20.25-1.83-40.44-2.06-60.44,1.96c29.18,7.22,57.83,4.57,86.17-4.46
		C366.85,15.2,332.88,16.48,298.84,23.84z M454.16,82.16c0.13-0.89,0.27-1.78,0.4-2.67c-3.58-1.6-7.06-3.48-10.75-4.76
		c-12.27-4.23-24.76-7.88-36.91-12.42c-28.25-10.56-57.26-11.93-86.49-6.56c-13.48,2.48-26.46,7.69-39.66,11.68
		c-2.07,0.63-4.1,1.36-6.13,2.1c-1.96,0.71-3.89,1.49-5.83,2.25C331.76,52.79,393.47,56.29,454.16,82.16z M312.67,16.19
		c0.23,0.56,0.47,1.11,0.7,1.67c4.58-0.28,9.17-0.53,13.75-0.86c23.97-1.73,47.75-1.06,71.19,5.07c2.37,0.62,5.12-0.2,7.69-0.35
		c-2.11-1.54-4.03-3.97-6.36-4.46c-9.56-2-19.21-3.71-28.9-4.96c-18.4-2.37-36.76-1.65-54.98,1.92
		C314.64,14.44,313.7,15.51,312.67,16.19z M371.93,42.5c-0.08,0.25-0.15,0.5-0.23,0.75c3.13,0.61,6.3,1.88,9.38,1.71
		c14.72-0.81,29.42-1.93,44.11-3.14c2.23-0.18,4.5-1.2,6.52-2.28c2.05-1.09,4.47-3,1.84-5.31c-2.13-1.86-6.69-4.4-7.61-3.62
		c-6.09,5.16-13.49,6.2-20.71,7.42C394.2,39.9,383.04,41.05,371.93,42.5z M354.85,37.73c-0.09,0.34-0.17,0.67-0.26,1.01
		c2.55,0.41,5.13,1.3,7.63,1.13c12.09-0.82,24.23-1.47,36.22-3.13c6.63-0.92,13.05-3.54,19.43-5.79c1.35-0.48,2.11-2.65,3.14-4.04
		c-1.19-0.78-2.31-1.71-3.59-2.3c-3.54-1.63-7.05-3.09-9.66,1.66c-0.54,0.98-2.17,1.55-3.41,1.94c-5.39,1.67-10.73,3.69-16.25,4.66
		C377.08,34.82,365.94,36.15,354.85,37.73z M378.41,50.65c13.47,6.33,51.36,0.81,55.74-7.49C415.9,45.61,397.38,48.1,378.41,50.65z
		 M437.95,62.39c-9.78-1.02-19.56-2.03-29.35-3.05c11.81-2.89,24.8-0.56,34.84-9.89c-14.68,2.78-29.1,5.51-43.4,8.22
		C410.64,63.2,427.19,64.51,437.95,62.39z M290.22,42.87c0.17,0.97,0.34,1.93,0.51,2.9c10.95,0,21.91,0.06,32.86-0.07
		c1.47-0.02,2.93-0.96,4.4-1.47c-0.08-0.47-0.17-0.94-0.25-1.41c-1.22-0.2-2.43-0.54-3.65-0.59c-9.11-0.4-18.23-0.87-27.35-1.02
		C294.57,41.18,292.39,42.29,290.22,42.87z M344.67,37.3c-14.26,0.55-28.35-4.26-42.56-0.55C316.3,38.57,330.48,40.57,344.67,37.3z
		 M309.29,15.97c0.17,0.27,0.28,0.68,0.49,0.73c0.24,0.06,0.57-0.18,0.86-0.29c-0.22-0.32-0.43-0.65-0.65-0.97
		C309.75,15.61,309.52,15.79,309.29,15.97z"/>
	<path class="st2" d="M488.19,442.48c4.07,8.15,8.16,16.28,12.2,24.45c0.71,1.44,1.2,2.98,1.44,4.8
		c-9.67-9.92-19.97-18.58-35.14-22.27c6.77,10.81,11.75,20.71,12.91,32.33c-7.44-11.84-16.38-21.49-31.16-23.88
		c3.01,7.89,5.97,15.64,8.92,23.39c-0.41,0.31-0.81,0.61-1.22,0.92c-6.35-8.41-13.94-15.11-24.4-18.55
		c-1.24,8.93-5.8,15.8-11.95,21.67c1.37-6.82,2.72-13.54,4.07-20.26c-0.45-0.15-0.91-0.31-1.36-0.46
		c-5.55,15.43-15.14,28.14-26.77,39.67c0.81-3.26,1.63-6.53,2.44-9.79c-10.34,7.09-16.13,17.66-22.67,27.62
		c-0.44-0.11-0.89-0.23-1.33-0.34c0.98-5.11,1.96-10.23,2.94-15.34c-12.57,9.31-22.98,20.11-27.6,35.97
		c-4.19-7.32-7.35-14.59-12.09-20.62c-4.85-6.17-11.24-11.12-16.95-16.61c-0.33,0.25-0.65,0.5-0.98,0.76
		c1.35,5.33,2.69,10.65,4.04,15.98c-0.36,0.15-0.72,0.3-1.07,0.46c-6.53-9.11-13.06-18.22-19.59-27.33
		c-0.36,0.2-0.73,0.41-1.09,0.61c0.3,3.43,0.6,6.85,0.89,10.28c-10.93-11.87-22-23.33-27-38.98c-0.52,0.12-1.04,0.24-1.56,0.36
		c0.56,5.14,1.12,10.29,1.71,15.73c-5.99-5.92-9.39-12.65-9.57-20.86c-10.69,3.1-18.09,10.37-24.94,18.43
		c-0.48-0.32-0.96-0.65-1.43-0.97c3-7.46,6-14.93,9.17-22.84c-14.96,2.26-24.06,12.4-32.03,24.13c-0.51-0.28-1.01-0.56-1.52-0.84
		c1.8-4.9,3.29-9.94,5.48-14.66c2.22-4.78,5.12-9.24,7.99-14.32c-7.71-1.08-13.1,2.96-18.33,7.08c-5.21,4.1-10.18,8.51-16.05,13.46
		c3.52-12.23,10.7-21.4,16.62-31.43c-15.56,5.64-27.81,15.52-38.13,28.75c3.19-27.85,41.42-54.86,76.24-54.21
		c0.91,2.66,1.85,5.42,2.55,7.48c-8.28,4.13-16.19,8.08-24.09,12.03c0.26,0.63,0.51,1.26,0.77,1.89c1.69-0.43,3.41-0.76,5.06-1.32
		c6.91-2.36,13.77-4.91,20.73-7.1c1.23-0.38,3.05,0.33,4.32,1.04c6.76,3.78,13.44,7.7,20.12,11.61c1.17,0.68,2.93,1.42,3.18,2.43
		c5.03,20.82,20.28,32,38.52,39.43c30.14,12.28,61.39,5.32,83.62-17.54c6.53-6.72,10.54-14.16,12.39-23.14
		c8.78-2.42,17.08-5.85,23.68-12.74c1.1-1.15,4.45-1.02,6.37-0.36c9.1,3.11,18.07,6.61,27.09,9.97c0.75,0.39,1.5,0.78,2.25,1.17
		c0.15-0.21,0.29-0.41,0.43-0.62c-0.48-0.53-0.96-1.06-1.44-1.59c-7.63-8.04-17.96-10.9-27.94-14.26c1.7-9.22,2.14-9.82,10.81-7.77
		c9.18,2.17,18.34,4.63,27.21,7.79c19.89,7.09,30.27,23.35,38.48,41.44c0.46,1,0.53,2.18,0.44,3.58
		c-9-12.19-20.75-20.68-34.36-26.74C489.06,441.78,488.62,442.13,488.19,442.48z M301.86,494.45c-0.12-0.11-0.23-0.21-0.33-0.3
		c-0.11,0.19-0.26,0.37-0.32,0.58c-0.02,0.07,0.18,0.2,0.28,0.3C301.6,494.84,301.72,494.65,301.86,494.45z"/>
	<path class="st2" d="M210.13,141.12c14.21-4.49,28.37-9.12,42.64-13.38c5.87-1.75,11.99-2.7,17.99-4.02
		c49.06-7.1,98.11-7.56,147.23-0.29c21.5,3.18,41.75,10.02,61.49,18.71c0.96,0.42,2.22,1.3,2.41,2.17c1.42,6.42,2.61,12.9,3.8,19.01
		c-20.4-1.82-40.11-3.59-59.81-5.35c-1.46-0.58-2.89-1.53-4.4-1.69c-39.06-4.3-78.2-5.49-117.43-2.96
		c-8.08,0.52-16.13,1.64-24.19,2.48c-4.25,0.37-8.5,0.74-12.75,1.1c-0.38,0.03-0.76,0.05-1.14,0.08
		c-20.96,2.14-41.93,4.27-63.27,6.45c1.69-6.49,3.29-12.91,5.1-19.28C208.12,142.99,209.33,142.11,210.13,141.12z"/>
	<path class="st2" d="M173.05,285.83c2.35,4.46,5.18,8.74,6.97,13.42c4.08,10.7,6.93,21.9,11.55,32.34
		c12.74,28.81,35.6,43.27,66.78,45.1c1.66,0.1,3.32,0.22,4.98,0.33c-6.48,2.02-11.36,6.17-14.48,12.04
		c-1.77,3.33-4.08,3.99-7.51,4.11c-17.61,0.64-34.95,3.05-50.61,11.74c-17.58,9.77-33.79,21.33-44.53,39.03
		c-0.29,0.48-0.9,0.75-2.3,1.87c0.38-2.06,0.32-3.16,0.77-4c5.44-10.26,10.96-20.48,16.43-30.72c1.88-3.51,3.7-7.06,5.54-10.59
		c0.05-0.42,0.11-0.84,0.17-1.26c-0.34,0.18-0.69,0.36-1.03,0.53c-6.48,4.9-12.9,9.87-19.47,14.65c-2.33,1.7-5,2.93-7.77,4.05
		c7.74-12.5,16.85-24.04,21.25-38.32c-6.13,4.94-12.27,9.88-18.4,14.82c-0.3-0.36-0.59-0.72-0.89-1.07
		c5.45-9.34,10.9-18.67,16.35-28.01c-0.52-0.46-1.03-0.92-1.55-1.38c-9.59,8.9-20.12,16.09-32.8,19.38
		c16.21-9.94,24.68-25.48,31.66-42.27c-6.16,4.54-11.88,9.38-20.48,10.61c8.6-7.04,18.22-22.88,21.69-35.37c-1.5,0-2.89,0-4.69,0
		c0.74-0.79,1.08-1.15,1.43-1.52c1.59-1.84,3.18-3.68,5.14-5.95c-1.7-0.38-2.83-0.63-4.21-0.94
		C158.89,299.89,164.18,291.29,173.05,285.83z M154.48,340.16c-0.1,0.1-0.3,0.22-0.28,0.28c0.05,0.2,0.18,0.39,0.28,0.58
		c0.1-0.1,0.3-0.21,0.28-0.28C154.72,340.53,154.58,340.35,154.48,340.16z"/>
	<path class="st2" d="M435.82,376.02c10.12-0.5,20.41-0.03,30.34-1.67c25.64-4.25,43.22-19.85,54.53-42.52
		c4.71-9.45,7.51-19.85,11.24-29.8c0.91-2.43,2.05-4.78,3.08-7.17c3.64,5.34,7.29,10.67,10.93,16.01c-0.95,0.24-1.89,0.48-3.13,0.8
		c2.57,1.87,5.02,3.64,7.46,5.42c-0.5,0.6-1,1.21-1.49,1.81c-1.65-0.63-3.29-1.26-5.65-2.15c3.73,12.62,8.61,23.75,17.64,32.7
		c1.13,1.12,2.14,2.38,3.2,3.57l0.1-0.1c-5.59-3.02-11.2-6-16.74-9.09c-1.59-0.89-3-2.12-4.72-2.86
		c7.04,16.81,14.76,32.94,31.26,42.73c-12.51-3.84-22.93-10.92-31.77-20.63c-0.5,0.55-1.01,1.1-1.51,1.66
		c5.82,9.97,11.64,19.95,17.46,29.92c-0.26,0.23-0.53,0.46-0.79,0.69c-7.06-6.26-14.12-12.52-21.19-18.78
		c-0.48,0.38-0.96,0.76-1.45,1.15c3.79,6.83,7.32,13.81,11.43,20.44c4.09,6.61,8.75,12.86,13.16,19.27
		c-0.33,0.44-0.65,0.87-0.98,1.31c-9.12-6.66-18.25-13.31-28.54-20.82c6.82,17.08,19.66,29.48,23.6,45.88
		c-24.65-31.98-57.04-49.08-97.53-50.8c-2.81-0.12-4.7-0.71-5.81-3.47C447.3,382.88,441.19,379.82,435.82,376.02z"/>
	<path class="st2" d="M312.86,357.7c1.06-1.21,2.12-2.42,3.19-3.63c2.01,6.38,4.01,12.77,6.15,19.59
		c8.43-4.23,16.45-3.12,24.54-1.89c2.92,0.44,6.02,0.61,8.92,0.13c7.73-1.29,15.35-2.34,22.81,2.19c1.74-3.7,3.31-6.96,4.82-10.26
		c2.09-4.58,4.12-9.17,6.18-13.76c0.15,0.24,0.3,0.48,0.46,0.71c-3.62,11.35-7.12,22.75-10.96,34.03c-0.93,2.74-2.89,4.88-6.59,3.09
		c-1.01-0.49-2.87,0.05-4.01,0.7c-1.24,0.7-2.28,1.96-3.08,3.19c-4.52,6.94-5.46,15.42-10.82,22.32c-3.11,4,0.28,10.19,4.43,14.2
		c11.13,10.75,24.54,15.6,39.88,15.29c3.78-0.08,7.55-0.53,11.82-0.84c-8.66,7.58-18.25,10.14-28.39,5.96
		c-8.82-3.64-16.99-8.84-25.38-13.49c-2-1.11-3.7-2.76-5.72-4.29c-4.33,3.26-8.47,6.57-12.81,9.58c-8.07,5.6-17.04,8.96-26.8,10.12
		c-9.05,1.08-16.96-1.33-23.74-7.63c7.99,0,15.71,0.64,23.29-0.16c9.89-1.04,19.01-5.04,26.87-11.11c3.27-2.53,5.96-6.22,7.92-9.92
		c2.22-4.17,1.75-8.34-1.99-12.25c-2.38-2.49-4.09-6.08-4.98-9.47c-2.22-8.43-5.27-11.03-14.27-11.52
		c-1.42-0.08-3.44-1.82-3.96-3.25c-2.4-6.5-4.48-13.14-6.44-19.79C313.43,363.03,313.28,360.32,312.86,357.7z M324.54,381.24
		c0.41,0.47,0.83,0.93,1.24,1.4c1.1-0.2,2.19-0.45,3.29-0.6c7.78-1.12,12.55,2.3,13.81,10.06c0.37,2.29,0.38,4.64,0.53,6.97
		c0.23,3.58,2.14,5.27,5.71,5.6c6.24,0.57,9.23-2.22,8.8-8.5c-0.58-8.51,3.17-12.75,11.74-13.25c1.42-0.08,2.85-0.01,4.27-0.01
		c0.05-5.2-1.83-7.56-7.09-6.88c-11.13,1.45-22.14,0.97-33.22-0.11c-1.58-0.15-3.52,0.08-4.8,0.9
		C327.15,377.89,325.95,379.73,324.54,381.24z"/>
	<path class="st2" d="M245.67,397.99c0,3.84,0,7.12,0,10.75c-33.43,7.22-64.9,18.33-87.79,46.38c1-2.46,1.69-5.12,3.06-7.36
		c6.24-10.2,12.39-20.49,19.2-30.31c2.32-3.34,6.17-6.16,9.93-7.89C207.5,401.59,225.89,397.69,245.67,397.99z"/>
	<path class="st2" d="M452.81,408.39c0-3.37,0-6.66,0-10.42c16.37-0.06,31.96,2.59,46.93,8.57c5.08,2.03,10,4.45,14.97,6.73
		c0.7,0.32,1.5,0.75,1.88,1.37c6.8,11,13.6,22,20.27,33.08c1.42,2.36,2.33,5.03,3.06,7.97
		C517.66,427.36,485.66,417.45,452.81,408.39z"/>
	<path class="st0" d="M440.56,163.37c-5.13-0.54-8.9-1.26-12.67-1.28c-33.94-0.12-67.88-0.07-101.83-0.17
		c-15.15-0.05-30.31-0.39-45.46-0.48c-4.97-0.03-9.94,0.36-14.92,0.44c-0.78,0.01-1.56-0.64-2.22-1.66
		c67.82-0.36,135.57-3.9,203.36,3.08c-12.56,3.16-79.34,7.38-126.98,6.48c-42.33-0.8-84.62-3.43-126.93-5.25
		c0.01-0.41,0.03-0.83,0.04-1.24c13.9,0,27.82-0.34,41.7,0.11c10.1,0.33,20.16,2.33,30.26,2.52c33.9,0.62,67.82,1.1,101.72,0.93
		c16.94-0.08,33.88-1.68,50.82-2.62C438.06,164.19,438.65,163.91,440.56,163.37z"/>
	<path class="st0" d="M279.86,155.77c8.06-0.84,16.1-1.96,24.19-2.48c39.23-2.52,78.37-1.33,117.43,2.96
		c1.51,0.17,2.94,1.11,4.4,1.69c-20.17-0.85-40.32-1.94-60.49-2.48c-14.26-0.38-28.53-0.21-42.79,0.06
		c-13.24,0.26-26.46,1.01-39.69,1.44C281.9,157,280.87,156.19,279.86,155.77z"/>
	<path class="st2" d="M279,400.77c0,2.41,0,4.18,0,6.41c-9.17,0-18.18,0-27.34,0c0-2.33,0-4.72,0-7.64
		C260.81,399.95,269.69,400.35,279,400.77z"/>
	<path class="st2" d="M446.59,398.67c0,3.6,0,6.15,0,8.62c-8.1,0-16.14,0-24.43,0c-0.42-2.04-0.73-3.57-1.16-5.62
		C429.54,400.66,437.69,399.71,446.59,398.67z"/>
	<path class="st2" d="M259.12,423.7c-1.54-2.41-3.02-4.73-5.47-8.57c8.82,0,16.33-0.14,23.83,0.17c0.97,0.04,1.84,2.37,2.76,3.63
		c-1.11,0.72-2.14,1.86-3.34,2.07C271.02,422.03,265.1,422.82,259.12,423.7z"/>
	<path class="st2" d="M444.22,415.26c-0.7,5.04-2.77,7.43-6.38,7.17c-6.58-0.47-13.11-1.52-19.66-2.33
		c-0.22-0.59-0.44-1.18-0.66-1.77c1.74-1.02,3.45-2.84,5.23-2.93C429.69,415.05,436.66,415.26,444.22,415.26z"/>
	<path class="st2" d="M280.09,392.51c-2.16,0.26-4.34,0.85-6.47,0.7c-6.13-0.42-12.24-1.13-18.35-1.73
		c2.85-6.71,13.35-7.08,24.61-0.87C279.95,391.24,280.02,391.87,280.09,392.51z"/>
	<path class="st2" d="M443.7,392.07c-8.75-0.93-16.89,1.76-25.01,0.49C425.1,385.46,439.18,385.29,443.7,392.07z"/>
	<path class="st2" d="M563.97,353.02c0.29,0.09,0.57,0.19,0.86,0.28c-0.15,0.12-0.31,0.25-0.46,0.37c-0.1-0.25-0.2-0.5-0.3-0.75
		C564.07,352.92,563.97,353.02,563.97,353.02z"/>
	<path class="st0" d="M265.97,156.95c0.38-0.03,0.76-0.05,1.14-0.08C266.73,156.9,266.35,156.93,265.97,156.95z"/>
	<path class="st2" d="M197.41,245.09c-2.42,0.96-4.76,2.43-7.26,2.77c-5.31,0.74-10.7,0.89-16.06,1.28
		c-3.33-4.53-6.67-9.05-9.42-12.8c0.86-2.18,2.29-3.94,1.92-5.13c-4.26-13.49-5.57-27.4-6.47-41.39c-0.02-0.76-0.03-1.53-0.05-2.29
		c0-2.63,0-5.25,0-8.29c11.24-0.59,21.96,0.38,32.42,3.2c16.36,4.41,32.63,9.16,48.92,13.82c1.06,0.3,1.99,1.04,2.98,1.6
		c3.03,1.71,4.59,1.1,3.97-2.31c22.25,3.5,44.11-1.94,66.13-1.16c30.12,1.07,60.3,0.33,90.45,0.63c6.63,0.06,13.23,1.53,19.87,1.74
		c6.5,0.21,13.03-0.37,20.1-0.62c0.01,0.04,0.26,1.36,0.52,2.68c29.9-8.83,59.17-19.81,91.34-19.92
		c-0.63,9.62-0.56,18.97-2.04,28.07c-1.46,8.96-4.49,17.67-6.92,26.83c0.32,0.16,1.26,0.63,2.81,1.42
		c-3.05,4.18-5.87,8.04-8.69,11.89c-7.69-0.67-15.38-1.35-23.07-2.02c2.56-2.24,5.26-4.33,7.64-6.74
		c4.53-4.59,8.87-9.37,13.29-14.07c-0.36-0.36-0.71-0.72-1.07-1.07c-4.6,0.95-9.19,1.9-13.79,2.85c3.69-4.36,7.37-8.72,11.06-13.08
		c0.21-0.18,0.43-0.36,0.64-0.54c-0.16-0.03-0.31-0.07-0.47-0.1c-0.02,0.24-0.04,0.48-0.06,0.72c-4.16,1.08-8.31,2.16-12.47,3.24
		c9.19-7.04,15.15-16.14,19.98-26.64c-5.84,0.44-12.61-0.11-16.68,2.95c-9.66,7.22-18.02,16.17-26.93,24.39
		c-3.88,3.59-7.82,7.12-11.73,10.67c0.13,0.08,0.26,0.18,0.4,0.25c0.14,0.07,0.29,0.11,0.43,0.17c-0.28-0.14-0.55-0.29-0.83-0.43
		c2.19-0.71,4.45-1.27,6.57-2.17c4.57-1.94,9.06-4.05,13.59-6.1c0.42,0.62,0.84,1.24,1.26,1.86c-3.83,3.53-7.65,7.06-11.94,11.02
		c6.56,1.86,12.3,0.43,18.01-1.87c2.37-0.95,4.85-1.62,7.28-2.42c-2.94,2.67-5.78,5.47-8.86,7.98c-2.84,2.31-3.99,4.76-1.83,8.08
		c-11.94,0.28-23.92,0.06-35.82,0.95c-21.36,1.6-42.4,4.87-61,16.72c-3.2,2.04-6.2,4.39-9.29,6.6c1.91-13.71-3.4-23.52-15.64-29.96
		c-4.43-2.33-8.4-5.56-12.65-8.42c1.13,4.45,2.28,8.99,3.43,13.54c-0.4,0.1-0.81,0.2-1.21,0.31c-3.23-6.71-6.45-13.42-9.65-20.08
		c-0.92,8.6-1.83,17.12-2.74,25.64c-0.37-0.02-0.74-0.05-1.11-0.07c0-7.82,0-15.64,0-22.82c-3.85,4.32-7.52,9.52-12.25,13.44
		c-4.5,3.73-7.89,7.76-8.53,13.48c-0.62,5.58-0.52,11.24-0.74,16.87c-6.37-4.4-12.36-9.56-19.2-13.05
		c-15.28-7.79-31.88-11.44-48.94-11.96c-17.25-0.53-34.52-0.07-51.78-0.07c-1.32,0-2.64-0.16-3.96-0.24
		c2.13-1.15,4.26-2.3,6.53-3.53c-3.39-3.19-6.96-6.55-10.9-10.25c16.36,2.67,16.36,2.67,21.46,0.49c-2.95-2.65-6.03-5.42-9.12-8.2
		c0.43-0.63,0.87-1.26,1.3-1.88c3.83,2.15,7.66,4.29,11.5,6.44c0.13,0.26,0.26,0.53,0.38,0.79c0.1-0.2,0.2-0.41,0.31-0.61
		c-0.26-0.02-0.52-0.05-0.78-0.07c-1.27-2.01-2.24-4.31-3.87-5.97c-9.23-9.35-18.82-18.34-27.86-27.86
		c-5.18-5.46-11.02-4.48-18-3.97c4.24,6.77,7.91,12.86,11.83,18.78c1.54,2.33,3.67,4.27,5.53,6.38c-0.3,0.31-0.6,0.62-0.9,0.93
		c-3.46-1.57-6.93-3.13-10.39-4.7c-0.34,0.27-0.68,0.54-1.01,0.8c4.36,4.73,8.72,9.46,13.08,14.19c-0.28,0.34-0.56,0.69-0.83,1.03
		c-4.07-1.56-8.13-3.12-12.2-4.68C181.8,232.72,188.61,239.85,197.41,245.09z M235.5,215.87c-8.65-13.88-21.53-21.02-37.23-23.7
		C209.03,202.7,222.62,208.73,235.5,215.87z M457.44,214.92c12.91-7,27.12-11.83,37.98-22.89
		C479.31,194.27,466.71,201.8,457.44,214.92z"/>
	<path class="st3" d="M544.5,162.57c-127.56,32.74-254.44,33.41-381.49,2.84c0.02-0.49,0.04-0.97,0.06-1.46
		c31.57,2.96,63.16,5.81,94.71,8.92c31.84,3.14,63.75,5.21,95.72,4.07c31.75-1.13,63.49-2.95,95.17-5.36
		C480.45,169.18,512.15,165.67,544.5,162.57z"/>
	<path class="st3" d="M159.77,178.99c-8.98,1.44-16.81,2.33-24.46,4.01c-12.29,2.7-23.84,7.42-33.95,15.04
		c-15.22,11.46-17.01,26.64-3.41,40c9.04,8.88,19.95,15.87,30.12,23.58c2.76,2.09,5.87,3.73,8.43,6.6
		c-5.55-2.08-11.29-3.75-16.6-6.31c-13.24-6.38-27.2-11.75-37.7-22.57c-3.6-3.71-6.5-8.34-8.88-12.97
		c-6.24-12.12,1.12-24.67,11.06-30.86c22.38-13.95,47.36-17.55,73.18-17.36C157.86,178.14,158.17,178.36,159.77,178.99z"/>
	<path class="st3" d="M576.01,261.01c8.49-6.32,17.09-12.52,25.42-19.05c2.57-2.01,4.6-4.81,6.57-7.48
		c11.81-16.03,9.07-28.93-8.3-40.18c-12.55-8.13-27.15-10.54-41.53-13.27c-5.78-1.1-11.65-1.73-17.52-3.72
		c1.48-0.12,2.96-0.33,4.45-0.35c21.13-0.24,41.93,1.85,61.51,10.36c5.85,2.54,11.53,6.09,16.33,10.27
		c8.19,7.14,9.52,16.51,4.65,26.29c-6.61,13.27-17.89,21.73-30.63,28.31c-6.72,3.47-13.96,5.91-20.97,8.82L576.01,261.01z"/>
	<path class="st3" d="M538.12,186.63c17.21,2.12,34.07,5.74,48.77,15.6c11.78,7.9,12.99,16.83,4.87,28.45
		c-7.03,10.06-17.07,16.1-28.06,20.86c-0.59,0.26-1.28,0.34-1.93,0.41c-0.65,0.07-1.32,0.01-2.88,0.01c4.89-3.62,9.34-6.55,13.35-10
		c4.01-3.45,8.02-7.06,11.25-11.21c9.37-12.07,6.7-22.98-6.71-30.5c-10.77-6.03-22.57-8.68-34.42-11.31
		c-1.56-0.35-3.11-0.76-4.66-1.15C537.83,187.41,537.97,187.02,538.12,186.63z"/>
	<path class="st3" d="M160.06,187.53c0.02,0.77,0.03,1.53,0.05,2.29c-13.98,2.55-27.37,6.87-39.74,13.92
		c-8.4,4.78-13.75,11.72-13.66,22.3c-2.8-7.12-0.55-14.31,6.16-19.63c10.36-8.21,22.49-12.69,35.05-16.15
		C151.91,189.16,156.01,188.43,160.06,187.53z"/>
	<path class="st3" d="M575.99,260.99c-0.34,0.32-0.67,0.64-0.02,0.02c-0.87,0.22-0.42,0.1,0.03-0.01
		C576.01,261.01,575.99,260.99,575.99,260.99z"/>
	<path class="st2" d="M462.81,256.95c9.19,1.55,19.86,2.44,29.99,5.26c18.13,5.06,26.47,18.46,23.92,37.22
		c-2.67,19.59-9.1,37.7-24.78,50.85c-5.5,4.61-11.95,8.62-18.63,11.16c-14,5.34-28.64,5.89-43.21,2.03
		c-25.12-6.66-37.5-24.18-41.38-48.94c-3.73-23.78,4.98-39.75,27.22-48.86c4.9-2.01,10.05-3.74,15.25-4.61
		C441.15,259.38,451.23,258.41,462.81,256.95z M480.41,280.52c-1.91-1.48-3.8-3.06-5.79-4.49c-5.45-3.92-11.51-5.35-17.92-3.22
		c-12.7,4.23-18.7,14.94-25.25,26.04C451.22,300.19,465.98,290.67,480.41,280.52z"/>
	<path class="st2" d="M267.15,366.11c-39.52-0.06-62.55-20.3-69.05-57.08c-1.12-6.33-1.66-12.96-1.16-19.35
		c0.9-11.54,6.07-20.97,17.65-24.91c28.15-9.58,56.26-9.94,83.42,3.24c21.06,10.21,27.98,25.89,23.4,48.95
		c-2.28,11.49-6.48,21.93-14.17,30.92C295.45,361.65,279.78,365.74,267.15,366.11z M259.28,298.13c1.7,0.32,3.27,0.91,4.82,0.86
		c13.79-0.49,27.59-0.95,41.37-1.82c2.22-0.14,5.96-2.1,6.1-3.5c0.22-2.28-1.71-4.95-3.19-7.16c-0.87-1.29-2.53-2.13-3.97-2.95
		C288.07,274.2,268.02,280.51,259.28,298.13z"/>
	<path class="st3" d="M389.46,350.07c-2.06,4.59-4.09,9.19-6.18,13.76c-1.5,3.3-3.08,6.56-4.82,10.26
		c-7.46-4.53-15.08-3.49-22.81-2.19c-2.89,0.48-5.99,0.31-8.92-0.13c-8.08-1.23-16.1-2.34-24.54,1.89
		c-2.14-6.82-4.15-13.21-6.15-19.59c12.89-18.21,20.5-38.29,22.14-60.66c0.16-2.16,2.9-5.74,4.67-5.89
		c7.7-0.64,15.51-0.58,23.22,0.01c1.74,0.13,4.6,3.37,4.65,5.24c0.54,19.77,7.89,37.26,17.23,54.18
		C388.5,347.95,388.96,349.03,389.46,350.07z"/>
	<path class="st3" d="M325.15,270.23c0.22-5.63,0.12-11.29,0.74-16.87c0.64-5.72,4.02-9.75,8.53-13.48
		c4.73-3.92,8.4-9.11,12.25-13.44c0,7.19,0,15.01,0,22.82c0.37,0.02,0.74,0.05,1.11,0.07c0.91-8.52,1.82-17.03,2.74-25.64
		c3.2,6.66,6.43,13.37,9.65,20.08c0.4-0.1,0.81-0.2,1.21-0.31c-1.15-4.54-2.3-9.09-3.43-13.54c4.25,2.87,8.22,6.09,12.65,8.42
		c12.24,6.44,17.55,16.25,15.64,29.96c-0.7,1.64-1.4,3.27-2.07,4.85c-16.16-9.3-33-6.72-49.74-4.75c-2.06,0.24-3.94,1.76-5.99,2.32
		C327.46,271.01,326.26,270.43,325.15,270.23z"/>
	<path class="st3" d="M222.03,227.97c-3.83-2.15-7.66-4.29-11.5-6.44c-0.43,0.63-0.87,1.26-1.3,1.88c3.08,2.77,6.17,5.54,9.12,8.2
		c-5.1,2.19-5.1,2.19-21.46-0.49c3.94,3.71,7.51,7.07,10.9,10.25c-2.27,1.23-4.4,2.38-6.53,3.53c-1.29,0.06-2.57,0.12-3.86,0.18
		c-8.8-5.24-15.61-12.36-20.11-22.07c4.07,1.56,8.13,3.12,12.2,4.68c0.39,0.13,0.78,0.26,1.17,0.38c-0.11-0.47-0.22-0.94-0.33-1.41
		c-4.36-4.73-8.72-9.46-13.08-14.19c0.34-0.27,0.68-0.54,1.01-0.8c3.46,1.57,6.93,3.13,10.39,4.7c0.67,0.2,1.33,0.39,3.19,0.94
		c-1.42-1.16-1.86-1.51-2.29-1.86c-1.86-2.12-3.98-4.06-5.53-6.38c-3.92-5.92-7.59-12-11.83-18.78c6.97-0.51,12.82-1.49,18,3.97
		c9.04,9.52,18.63,18.51,27.86,27.86c1.63,1.65,2.6,3.96,3.87,5.97C221.94,228.08,222.03,227.97,222.03,227.97z"/>
	<path class="st3" d="M504.93,226.07c4.6-0.95,9.19-1.9,13.79-2.85c0.36,0.36,0.71,0.72,1.07,1.07c-4.42,4.7-8.76,9.47-13.29,14.07
		c-2.38,2.41-5.08,4.5-7.64,6.74c-2.17-0.35-4.34-0.7-6.51-1.05c-2.16-3.32-1.01-5.77,1.83-8.08c3.08-2.51,5.92-5.3,8.86-7.98
		c0,0-0.05,0.03-0.05,0.03c0.68-0.69,1.36-1.38,2.04-2.07L504.93,226.07z"/>
	<path class="st3" d="M530.17,276.5c-2.56-2.76-4.15-4.48-5.74-6.19c1.44-1.08,3.09-3.24,4.29-3.01c1.97,0.38,3.65,2.3,5.46,3.56
		C533.13,272.33,532.09,273.79,530.17,276.5z"/>
	<path class="st3" d="M183.49,275.43c-1.92-2.14-3.19-3.55-4.45-4.95c1.83-1.01,3.64-2.74,5.5-2.8c1.47-0.04,2.99,1.98,4.5,3.09
		C187.44,272.1,185.86,273.43,183.49,275.43z"/>
	<path class="st3" d="M465.17,112.1c-48.3-21.01-99.07-21.14-150.09-18.65c-11.38,0.56-22.69,2.76-34.03,4.2
		c0.03,0.59,0.07,1.19,0.1,1.78c0.99,0.13,2.04,0.53,2.97,0.36c25.8-4.8,51.86-6.69,78.01-5.54c28.95,1.27,57.87,3.5,85.26,14.32
		c4.6,1.82,9.01,4.19,13.35,6.59c1.35,0.75,2.2,2.41,2.94,4.17c-31.99-10.78-64.86-14.74-98.14-16.2
		c-33.18-1.45-66.1,1.84-99.29,6.9c1.81-8.44,8.1-8.22,13.31-10.03c-6.74-2.6-12.89,1.94-20.03,0.87c-0.23-0.55-0.75-1.82-1.8-4.39
		c12.46-2.84,24.31-5.94,36.31-8.2c24.65-4.64,49.62-5.39,74.6-4.22c24.53,1.14,48.72,4.88,71.88,13.26
		C449.54,100.59,458.75,104.21,465.17,112.1z"/>
	<path class="st3" d="M289.37,77.12c-0.81-4.72,0.33-7.05,4.25-8.02c20.12-4.98,40.51-7.58,61.23-7.15
		c21.71,0.46,43.09,3.33,63.69,10.49c10.32,3.59,20.47,7.67,30.6,11.76c2.26,0.92,4.12,2.84,5.75,5.23
		c-26.89-8.4-53.88-15.05-81.93-16.85C345.01,70.79,317.26,72.15,289.37,77.12z"/>
	<path class="st3" d="M456.07,99.69c-27.98-11.08-57.14-16.12-86.95-17.42c-29.58-1.29-59.04,0.55-88.97,5.36
		c1.83-6.85,7.24-7.51,11.34-8.23c12.89-2.28,25.91-4,38.95-5.27c29.42-2.87,58.45,0.67,87.08,7.07
		c12.73,2.85,25.42,6.68,36.25,14.64c1.02,0.75,1.95,1.6,2.93,2.41C456.49,98.73,456.28,99.21,456.07,99.69z"/>
	<path class="st3" d="M298.84,23.84c34.04-7.35,68.01-8.63,101.9,1.89c-28.34,9.04-56.99,11.69-86.17,4.46
		c20-4.02,40.19-3.79,60.44-1.96c0.01-0.59,0.02-1.18,0.02-1.78c-13.46-0.26-26.94-0.95-40.39-0.61c-8.73,0.22-17.4,2.35-26.14,2.82
		c-3.19,0.17-6.51-1.99-9.77-3.09C298.77,24.99,298.81,24.41,298.84,23.84z"/>
	<path class="st3" d="M454.16,82.16c-60.69-25.87-122.4-29.37-185.37-10.38c1.94-0.75,3.87-1.54,5.83-2.25
		c2.03-0.74,4.06-1.47,6.13-2.1c13.2-4,26.18-9.21,39.66-11.68c29.23-5.37,58.24-4,86.49,6.56c12.15,4.54,24.64,8.19,36.91,12.42
		c3.69,1.27,7.17,3.15,10.75,4.76C454.43,80.38,454.3,81.27,454.16,82.16z"/>
	<path class="st3" d="M312.67,16.19c1.03-0.68,1.97-1.75,3.09-1.97c18.22-3.56,36.58-4.28,54.98-1.92
		c9.69,1.25,19.34,2.96,28.9,4.96c2.33,0.49,4.25,2.92,6.36,4.46c-2.57,0.15-5.32,0.97-7.69,0.35c-23.43-6.13-47.21-6.8-71.19-5.07
		c-4.58,0.33-9.16,0.57-13.75,0.86C313.14,17.3,312.9,16.74,312.67,16.19z"/>
	<path class="st3" d="M371.93,42.5c11.11-1.45,22.27-2.6,33.31-4.47c7.22-1.22,14.61-2.26,20.71-7.42c0.92-0.78,5.48,1.76,7.61,3.62
		c2.63,2.3,0.21,4.22-1.84,5.31c-2.02,1.07-4.29,2.09-6.52,2.28c-14.69,1.21-29.39,2.33-44.11,3.14c-3.09,0.17-6.25-1.1-9.38-1.71
		C371.77,43,371.85,42.75,371.93,42.5z"/>
	<path class="st3" d="M354.85,37.73c11.09-1.58,22.23-2.91,33.26-4.85c5.52-0.97,10.87-3,16.25-4.66c1.24-0.38,2.87-0.95,3.41-1.94
		c2.62-4.76,6.12-3.29,9.66-1.66c1.28,0.59,2.4,1.52,3.59,2.3c-1.03,1.39-1.79,3.56-3.14,4.04c-6.38,2.25-12.8,4.87-19.43,5.79
		c-11.99,1.66-24.13,2.31-36.22,3.13c-2.51,0.17-5.09-0.73-7.63-1.13C354.68,38.41,354.77,38.07,354.85,37.73z"/>
	<path class="st3" d="M378.41,50.65c18.97-2.55,37.49-5.04,55.74-7.49C429.77,51.46,391.88,56.98,378.41,50.65z"/>
	<path class="st3" d="M437.95,62.39c-10.75,2.12-27.3,0.81-37.91-4.72c14.3-2.71,28.72-5.44,43.4-8.22
		c-10.03,9.33-23.02,7-34.84,9.89C418.38,60.36,428.16,61.38,437.95,62.39z"/>
	<path class="st3" d="M290.22,42.87c2.17-0.58,4.36-1.69,6.52-1.66c9.12,0.15,18.24,0.62,27.35,1.02c1.22,0.05,2.43,0.39,3.65,0.59
		c0.08,0.47,0.17,0.94,0.25,1.41c-1.47,0.51-2.93,1.45-4.4,1.47c-10.95,0.13-21.91,0.07-32.86,0.07
		C290.56,44.81,290.39,43.84,290.22,42.87z"/>
	<path class="st3" d="M344.67,37.3c-14.19,3.28-28.37,1.27-42.56-0.55C316.32,33.03,330.4,37.85,344.67,37.3z"/>
	<path class="st3" d="M309.29,15.97c0.23-0.18,0.46-0.35,0.69-0.53c0.22,0.32,0.43,0.65,0.65,0.97c-0.29,0.11-0.61,0.35-0.86,0.29
		C309.57,16.64,309.45,16.23,309.29,15.97z"/>
	<path class="st3" d="M474.85,437.38c0.48,0.53,0.96,1.06,1.44,1.59c-0.14,0.21-0.29,0.41-0.43,0.62c-0.75-0.39-1.5-0.78-2.25-1.17
		C474.02,438.07,474.44,437.73,474.85,437.38z"/>
	<path class="st3" d="M488.19,442.48c0.43-0.35,0.87-0.7,1.3-1.05C489.06,441.78,488.62,442.13,488.19,442.48z"/>
	<path class="st3" d="M301.86,494.45c-0.13,0.21-0.25,0.39-0.37,0.58c-0.1-0.1-0.3-0.23-0.28-0.3c0.06-0.21,0.2-0.39,0.32-0.58
		C301.63,494.24,301.73,494.34,301.86,494.45z"/>
	<path class="st3" d="M154.48,340.16c0.1,0.19,0.23,0.38,0.28,0.58c0.02,0.07-0.18,0.19-0.28,0.28c-0.1-0.19-0.23-0.38-0.28-0.58
		C154.18,340.37,154.38,340.25,154.48,340.16z"/>
	<path class="st3" d="M165.77,399.77c0.34-0.18,0.69-0.36,1.03-0.53c-0.06,0.42-0.11,0.84-0.17,1.26
		C166.35,400.26,166.06,400.01,165.77,399.77z"/>
	<path class="st1" d="M324.54,381.24c1.41-1.51,2.6-3.35,4.29-4.43c1.28-0.82,3.22-1.06,4.8-0.9c11.07,1.08,22.09,1.56,33.22,0.11
		c5.26-0.68,7.14,1.68,7.09,6.88c-1.42,0-2.85-0.07-4.27,0.01c-8.57,0.5-12.32,4.74-11.74,13.25c0.43,6.28-2.56,9.07-8.8,8.5
		c-3.57-0.33-5.48-2.01-5.71-5.6c-0.15-2.33-0.15-4.68-0.53-6.97c-1.26-7.76-6.02-11.17-13.81-10.06c-1.1,0.16-2.19,0.4-3.29,0.6
		C325.37,382.18,324.96,381.71,324.54,381.24z"/>
	<path class="st3" d="M515.99,212.99c-3.69,4.36-7.37,8.72-11.06,13.08c0,0,0.1-0.12,0.1-0.12c-0.68,0.69-1.36,1.38-2.04,2.07
		c0,0,0.05-0.03,0.05-0.03c-2.43,0.8-4.91,1.47-7.28,2.42c-5.71,2.3-11.45,3.73-18.01,1.87c4.29-3.96,8.11-7.49,11.94-11.02
		c-0.42-0.62-0.84-1.24-1.26-1.86c-4.52,2.04-9.02,4.16-13.59,6.1c-2.12,0.9-4.38,1.45-6.57,2.17c0,0,0,0.01,0,0.01
		c3.91-3.56,7.85-7.09,11.73-10.67c8.91-8.22,17.28-17.17,26.93-24.39c4.08-3.05,10.84-2.51,16.68-2.95
		c-4.83,10.49-10.79,19.59-19.98,26.64c4.16-1.08,8.31-2.16,12.47-3.24C516.11,213.07,515.99,212.99,515.99,212.99z"/>
	<path class="st3" d="M235.5,215.87c-12.89-7.14-26.47-13.17-37.23-23.7C213.97,194.84,226.85,201.99,235.5,215.87z"/>
	<path class="st3" d="M457.44,214.92c9.26-13.13,21.87-20.65,37.98-22.89C484.57,203.09,470.36,207.92,457.44,214.92z"/>
	<path class="st3" d="M221.94,228.08c0.26,0.02,0.52,0.05,0.78,0.07c-0.1,0.2-0.2,0.41-0.31,0.61c-0.13-0.26-0.26-0.53-0.38-0.79
		C222.03,227.97,221.94,228.08,221.94,228.08z"/>
	<path class="st3" d="M468.27,227.66c0.28,0.14,0.55,0.29,0.83,0.43c-0.14-0.06-0.29-0.1-0.43-0.17c-0.14-0.07-0.27-0.17-0.4-0.25
		C468.27,227.68,468.27,227.66,468.27,227.66z"/>
	<path class="st3" d="M516.11,213.07c0.02-0.24,0.04-0.48,0.06-0.72c0.16,0.03,0.31,0.07,0.47,0.1c-0.21,0.18-0.43,0.36-0.64,0.54
		C515.99,212.99,516.11,213.07,516.11,213.07z"/>
	<path class="st3" d="M480.41,280.52c-14.42,10.15-29.19,19.67-48.97,18.33c6.55-11.1,12.56-21.81,25.25-26.04
		c6.42-2.14,12.47-0.71,17.92,3.22C476.6,277.47,478.5,279.04,480.41,280.52z"/>
	<path class="st3" d="M259.28,298.13c8.74-17.62,28.79-23.93,45.12-14.57c1.43,0.82,3.1,1.66,3.97,2.95
		c1.48,2.2,3.41,4.87,3.19,7.16c-0.14,1.4-3.88,3.36-6.1,3.5c-13.77,0.87-27.57,1.33-41.37,1.82
		C262.55,299.04,260.98,298.45,259.28,298.13z"/>
	<path class="st2" d="M189.56,215.44c0.44,0.35,0.87,0.71,2.29,1.86c-1.86-0.55-2.53-0.74-3.19-0.94
		C188.96,216.05,189.26,215.75,189.56,215.44z"/>
	<path class="st2" d="M190.34,226.66c0.11,0.47,0.22,0.94,0.33,1.41c-0.39-0.13-0.78-0.26-1.17-0.38
		C189.78,227.35,190.06,227.01,190.34,226.66z"/>
	<path class="st2" d="M502.98,228.02c0.68-0.69,1.36-1.38,2.04-2.07C504.35,226.64,503.67,227.33,502.98,228.02z"/>
</g>
</svg>
