<svg id="Layer_1" data-name="Layer 1" xmlns="http://www.w3.org/2000/svg" viewBox="0 0 717.66 746.44"><defs><style>.cls-1{fill:#f7992d;}.cls-2{fill:#221f1f;}.cls-3{fill:#ed453d;}.cls-4{fill:#f4dcae;}.cls-5{fill:#f0cd96;}.cls-6{fill:#272424;}.cls-7{fill:#dfae74;}.cls-8{fill:#fbfbfa;}</style></defs><path class="cls-1" d="M575.71,228.51c5.13,2.67,10.17,5.51,15.39,8,29.85,14,57.94,30.88,82.6,52.9,18.67,16.67,34.93,35.49,44.29,59.08,15,38,9.86,74-12.84,107.39C684,487,654,507.61,619.89,522.08c-16.8,7.12-34.53,12-51.87,17.87a46.29,46.29,0,0,1-6.82,1.2l-14.11-24.61,4.06-6.48,1.94-2.54.87-1.15,1.24-1.79-.06.09,1.29-1.85-.07,0,.88-1.21-.09.09.91-1.2L565,489.34c1,4,2.09,8,3.17,12.12,6.47-8,7.06-18.11,9.74-27.87l3.22,10.5c7.06-13.42,7.89-27.1,10.4-41.4l5.27,9.86c2.75-17.53.26-33.2-3.76-49.7l14.32,7.37c-4.44-13.78-8.44-26.17-12.82-39.75,2.1,1.71,3.29,2.56,4.33,3.56s2.1,2.3,3.67,4a17,17,0,0,0,.09-2.51c-.28-1.48-.63-2.94-1-4.39-6.57-27.56-22.45-49.44-42.19-68.92-2.19-2.15-5-3.68-7.51-5.5a7.68,7.68,0,0,1-.88-2.17c-.6-7.6-1.32-8.38-9-10.41-2.68-.7-5.59-1.3-7.83-2.8-5.07-3.39-9.8-7.3-14.66-11l-1.46-1.05-5-2.94-7.09-3.86c-2.51-2.88-4.49-6.77-7.64-8.44a145.51,145.51,0,0,0-22.43-9.59c-40.16-13.33-81.53-20.85-123.57-24.92-4.36-.42-8.75-.56-12.25-.77-.73,11.89-1.42,23.07-2.08,33.76-3.15-10.15-6.32-20.41-9.54-30.65-.91-2.89-2.93-4.23-6-4.15-18.61.49-37.46-.76-55.76,1.86s-35.85,9.07-53.75,13.85a46.93,46.93,0,0,0-6.59,1.87,152.33,152.33,0,0,0-53.45,39.36c-1.86,2.12-3.13,3.9.85,5.35L143,284.44l-4.21,1.78,0-.07-2,1.11.06-.06-1.64,1.32-.21.94v3.09l.1,10,.9,3.05,7,7.93a2.12,2.12,0,0,0,0,1v0l-.94,2.05-2.12,3.75-1.18,2.12.11-.11-.87,1.26-2.1,4.57-1,2.44-.06.41-.87,2.56v0l-.37,1.73,1.35,0,2.35-.55.41.14.38-.25.4.09.4-.12a14.07,14.07,0,0,1-.3,3.76c-2.68,7.46-6,14.74-8.13,22.34-1.67,5.87-2,12.13-3.06,19.19l11.1-8.6c-4.25,17.76-4.2,34.64-2.49,51.59.46,4.61.81,9.24,1.21,13.85-12.86-8.25-26.22-15.85-38.48-24.91a288.32,288.32,0,0,1-63.22-63.51c-14.79-20.59-25.35-43.13-26.53-69-1.86-41,16.71-70.66,51.53-90.77,24.6-14.21,51.78-20.56,79.56-25,22.79-3.67,45.74-4.15,68.71-4.57a21,21,0,0,0,2.93-.46,2.19,2.19,0,0,0,.55.17l2,.47,2.4,0,3.48-.13a9.32,9.32,0,0,0,1.9.49c24.5,1,49,1.42,73.49,3.18,19.41,1.4,38.84,3.65,58,6.95,28.82,5,57.42,11.18,86.11,16.86,12.92,2.8,26,5.19,38.73,8.51,11.26,2.93,22.24,7,33.39,10.4,9.1,2.8,18.3,5.3,27.38,8.15,2.59.81,4.86,2.57,7.4,3.59C556.28,220.94,566,224.7,575.71,228.51Z" transform="translate(-8.87 -7.55)"/><path class="cls-2" d="M139.89,320.24l2.12-3.75.94-2.05v-.95l-7-7.93-.9-3.05-.1-10v-3.09l.21-.95,1.64-1.31-.06.06,2-1.11,0,.07,4.21-1.78,10.7-4.39c-4-1.45-2.71-3.23-.85-5.35a152.33,152.33,0,0,1,53.45-39.36,46.93,46.93,0,0,1,6.59-1.87c-.62.68-1.11,1.6-1.87,2-17.85,9.25-32.28,22.79-46.28,36.85a47.3,47.3,0,0,0-4.16,5.58,9.86,9.86,0,0,0,5.6.2c9.67-2.38,19.22-5.42,29-7.11,21.41-3.71,42.66-3.25,63.62,3.53,17.54,5.67,30.85,17.44,44.3,29.2,13.28-8.91,56.4-11.93,68.69,0,4.1-3.29,8.31-6.53,12.38-9.95,14.65-12.3,31.62-19.46,50.39-22.29,12.63-1.9,25.3-2.64,38.06-.12,8.8,1.74,17.81,2.39,26.68,3.84,6.89,1.12,13.69,2.72,20.54,4.11l1.08-2.12L518,275.44l-1.09-.91-5.33-3.83c.47-1.44.95-2.88,1.43-4.32l5,2.94,1.46,1.05c4.86,3.7,9.59,7.61,14.66,11,2.24,1.5,5.15,2.1,7.83,2.8,7.72,2,8.44,2.81,9,10.41a7.68,7.68,0,0,0,.88,2.17l.07,7.58c-.64.56-1.9,1.22-1.83,1.67.7,4.6-2.65,6.43-5.58,8.57a31.16,31.16,0,0,0-3.52,2.53c-6.35,6.19-7.62,14.67-8.81,22.66-2.7,18.11-7.73,35.29-18,50.5C503.73,405.7,489.44,416.1,471,420.1c-6.17,1.34-12.46,2.11-17.27,2.9l19,24.87c12,.84,24.83,1,37.45,2.79,22,3.12,40.95,13,56.91,28.58L565,489.34l-6.91,11.18-.91,1.2.09-.09-.88,1.21.07,0-1.29,1.86.06-.09L554,506.37l-.87,1.15-1.94,2.54-4.06,6.48c-3.8-2.38-4.79-6-4.42-10.18,5.15-7.43,10.37-14.81,15.39-22.32,2.23-3.33,2-6.4-1.92-8.63-4.44-2.51-8.77-5.22-13.14-7.84l-2.1-5.79-1.68.5c-.08,1.12-.17,2.24-.26,3.35-20.7-8.85-42.37-11.43-64.48-10.42v14l3.76,1.77c-.09.28-.19.56-.29.84l.49-.68,4.61.22-1.29,1.68c1,.42,2,.88,3,1.21a6.06,6.06,0,0,0,1.62,0c-.13-.89-.24-1.66-.35-2.43,19.69,4.18,36.73,13,49.91,28.55a33.37,33.37,0,0,1,2.6,4.06c-.68,3,2.75,6.57-1.37,9a38.16,38.16,0,0,0-3-5.61c-6.5-8.34-14.13-15.48-23.52-20.46-11.91-6.32-24.46-10.76-37.89-12.24-1.53,4.6-2.92,8.74-4.33,13,14.7,4.76,28.57,10.92,40,21.55l1.82,1.7,11.89,11.84c-1.38,1.44-2.76,2.87-4.13,4.31-13.52-16.3-30.69-27.1-50.75-33.47-1.48-.47-4-.59-4.81.27-3.93,3.9-7.44,8.2-11.32,12.62l11.32,7.72c0,4,2,5.44,5.83,4.7l18.28,21.15-5.92,1.8c-7.91-8.06-15.7-16.24-23.78-24.14-6.48-6.34-13.63-9.26-21.7-2.36a1.19,1.19,0,0,1-.43.23c-3.64.91-5.07,3.08-5.51,7-2,18.1-11.05,32.29-25.7,42.73-25.87,18.45-67.27,25.27-103.1,4.43-18.43-10.72-30.8-26.1-36.49-46.78-.54-2-1.81-4.36-3.45-5.26-7.26-4-14.77-7.48-22.24-11.08-1.08-.52-2.68-1.2-3.55-.78-9.07,4.41-18.2,8.78-26.24,16.33l12.91,10.21-6.27,3.64c-4.87-2.51-9.9-4.77-14.56-7.63-2.85-1.75-4.65-1.14-7,.68a143.8,143.8,0,0,0-34.75,38.27c-4.58,7.34-8.95,14.82-13.48,22.19a11.83,11.83,0,0,1-3.47,3.62c8.48-29.93,25.64-53.63,51.17-71.73l-12.84-11.82c-30.37,14.47-53.44,36.88-74.49,61.84,7.53-15.49,16.78-29.73,30-40.41,13-10.5,27.24-19.45,41-29.14l-11.89-12.88C134.83,501.94,111,522.74,88.7,545.73c20.52-33.7,51.07-54.56,87-68.36-2.85-4.86-5.42-9.64-8.46-14.12a5.32,5.32,0,0,0-4.56-1.76c-4,1-7.8,2.76-12.52,4.53,1.75,5.11,3.44,10,5.13,14.93-.21.22-.42.44-.64.65-2-2.88-4.61-5.53-6-8.71-1.85-4.31-4.25-5.48-8.4-3.48q-22.22,10.71-44.47,21.38a20.32,20.32,0,0,1-5.57,1.81c14.8-14.79,32.79-24,52.38-30.74-.16-2.1-.33-4.23-.49-6.36,3.77-2.24,3.94-3.52.52-5.86l-.71,4.89-2.73-11,3,1.4c2.2-1.59-.65-7.54,5.19-5.17A31.15,31.15,0,0,0,150,458.37l1.63-.23q-1-5.76-2-11.51l3.56-4.18c1.19,3.37,2.32,6.76,3.63,10.09.28.73,1.2,1.22,1.82,1.82.55-.7,1.45-1.34,1.57-2.1a62.22,62.22,0,0,0,.64-7.46c.09-3.1,0-6.2,0-9.29l1.7-.11c2.14,5.62,4.27,11.23,6,15.71l50.64-3.73c2.6-4.39,5.11-9.25,8.21-13.7s6.91-8.69,10.4-13a23.41,23.41,0,0,1-8.74.76c-25-1.54-45-11.76-58.54-33.56-8.85-14.22-14-29.71-17.54-45.89-1-4.59-1.81-9.21-2.88-14.72l-6,9.24-5.16-2-.4.12-.4-.09a1.54,1.54,0,0,0-.79.11l-2.35.55-1-1.75v0l.87-2.56.06-.41,1-2.44,2.1-4.57.87-1.26-.11.11C139.11,321.66,139.5,321,139.89,320.24Zm281.45,172.4-3.36.91c-4.1-.6-8.23-1.09-12.3-1.89-1-.19-1.79-1.39-2.68-2.12,1-.66,1.93-1.88,2.92-1.91,17.45-.55,34.91-.94,52.36-1.46,1.27,0,3.23-.51,3.63-1.36,1.56-3.35,2.62-6.93,4.36-11.82l-47.92,1.62c-.26-.41-.53-.82-.79-1.24,1.39-.95,2.68-2.51,4.19-2.76a144.74,144.74,0,0,1,17.83-2.11c9.27-.34,18.56-.09,28.21-.09-.24-5.09-.42-8.86-.63-13.21l-47.62,4.06-.89-1.08c1.07-1,2-2.62,3.24-2.93a93.3,93.3,0,0,1,10.82-1.85c10.44-1.4,20.89-2.73,31.92-4.16-1.34-2.73-2.32-5-3.53-7.14-4.76-8.49-12.26-14.17-20.18-19.41l-2.06-.82-2.86-.5-2-.82-6-1.17-1.36-.73-1.63-.26-2-.83-4-1.16-1.3-.77a.65.65,0,0,1-.69-.2l-1.38-.78-4.62-2.2-1.28-.84L403,407.42l-1.17-.85C394.9,399,387.18,392,381.22,383.74,370.58,369,365.71,351.5,361,334.16c-.63-2.29.08-4.92-.23-7.34-.3-2.26-.56-4.88-1.83-6.59-4.12-5.51-10.59-6.32-16.7-6.16a84.2,84.2,0,0,0-20,2.82c-5,1.38-5.82,5-4.05,9.77.65,1.78,1.29,4,.84,5.68-2.41,9-4.62,18.15-7.91,26.86-10.43,27.59-27.5,48.92-56,60.15-7.4,2.91-13.65,9.24-19.77,14.75-4.27,3.85-6.71,9.28-7.71,15.64,2,.3,3.57.51,5.17.77,8.86,1.48,17.74,2.84,26.56,4.55,1.85.36,3.44,2.05,5.15,3.12l-.95,1.87-38.62-5.25V467l41.27,3.84.41,2.51c-1.22.61-2.48,1.8-3.68,1.75-5.32-.21-10.61-1-15.93-1.16-7-.22-14.1-.06-21.32-.06.19,1.21.29,2.37.55,3.49,1.71,7.25,1.73,7.06,9.08,7.45q14.7.79,29.37,2.19c1.89.18,3.65,1.73,5.46,2.65A62.12,62.12,0,0,1,258,494.31c-2.1.62-2.11.57-2.09-1.79l.33-1.06-24.56-1.58c-.07.52-.13,1.05-.19,1.58,3.6,2.13,4.8,7.76,10.48,6.89l1,2.06c.66,1.21,1,2.76,2,3.57,7.92,6.49,17.45,8.8,27.3,9.89C295,516.37,314.41,509,330,492.59c2.91-3.07,3.11-9.16,3.45-13.93.12-1.7-2.78-4-4.77-5.39-4.55-3.11-6.95-6.6-7-12.65,0-9.86-7.44-16.43-15.4-14.18-4.46,1.26-6.53-.25-8.39-3.64a28.62,28.62,0,0,0-2.72-4.74c-3.16-3.78-.43-6,2.36-7.14,4.54-1.88,9.39-3.94,14.18-4.15,14.76-.65,29.56-.83,44.31-.41,5,.14,10,2.3,14.78,4.12s5.69,4.41,3.49,9a23.35,23.35,0,0,1-3.68,5.87,5.41,5.41,0,0,1-4.14,1.39c-9.68-1.44-17.72,4.93-16.37,14.61.94,6.76-2.33,9.75-6.64,13.08a5.59,5.59,0,0,0-2.24,3.31c-.55,7.64,1.05,14.32,7.64,19.44a84.27,84.27,0,0,0,48.81,18.05A82.68,82.68,0,0,0,435.59,508c1.9-.85,5-1.58,2.07-4.73l.11-1.81c2.22.48,5.19,2.11,6.52,1.24,4.09-2.71,7.54-6.36,11.25-9.64l-.76-2-32,1.66ZM272.42,520l-1.55,1.28c3.9,8,6.6,16.83,11.9,23.71,31.92,41.48,93.64,36.07,122.69,9.09,10-9.31,15.81-20.86,18-34.42a10.68,10.68,0,0,0-1.48-.13c-.82.1-1.65.2-2.46.37-30.22,6.39-56.17-2.39-78.85-22.38-2.68-2.36-4.25-1.93-6.64.19C316.51,513.32,297,523.54,272.42,520ZM247.25,286.56a24.92,24.92,0,0,0-3.54-1.78c-17.64-3.65-35.14-3.71-51.9,3.61-13,5.67-24.48,13.15-26.29,29.16-1.29,11.35.39,22.29,4,34,.49-8.5.87-16,1.35-23.41.24-3.71,1.53-5.68,6.07-5.73a92.12,92.12,0,0,0,60.32-22.64C241.21,296.35,243.74,291.3,247.25,286.56Zm138.54,81.95c1-11.34,2.18-22.32,2.9-33.31.28-4.13,2.42-5.93,5.75-7.69,10.41-5.49,21.1-10.65,30.78-17.27,6-4.09,10.6-10.35,15.24-16.12,2.09-2.6,2.71-6.38,4.52-11-7.41,1.36-13.41,1.87-19,3.58-21.05,6.39-39,16.83-48.34,38.24-2.11,4.84-3.11,9.25-.05,14.15,1.44,2.31,1.86,5.29,2.59,8C382.07,354.24,383.91,361.37,385.79,368.51ZM172.11,487.34l9.58,13.52,39.73-15c-1.52-3.66-3.2-7.73-5.22-12.62l-27.77,6.66c.83,2.36,1.33,3.77,1.83,5.18-.11.57-.22,1.14-.32,1.71C183,478.87,177.81,484.31,172.11,487.34Zm.57-29c3,5.1,5.31,9.5,8.07,13.63.81,1.21,2.94,2.52,4.2,2.29,10.58-1.89,21.1-4.13,31.94-6.32V454.59C202.18,454.08,187.7,454.55,172.68,458.38Zm58.8,42.95a45.11,45.11,0,0,1-4.11-5.11c-2.5-4.22-5.72-4.55-9.94-2.73-6.08,2.62-12.42,4.68-18.44,7.43-4,1.8-7.53,4.39-11.92,7l12.33,10.41Zm293-196.92c4.19-1.1,8.22-.81,8.39-5.75.13-3.79-2.75-5-6.08-5-4.62-.07-8.15,2.8-7.32,6.68C519.82,302,522.73,303.06,524.47,304.41ZM157.62,305.5c2.46-2.75,5.06-4.33,5.34-6.25.54-3.74-2.68-4.82-5.86-5s-6.33.82-5.72,4.26C151.77,300.73,154.79,302.49,157.62,305.5Zm336.19,148-.11-.73H479.09a6.79,6.79,0,0,0,3.36.72C486.24,453.51,490,453.5,493.81,453.5Zm-19.09-.39a1.36,1.36,0,0,0,.42.13c.05,0,.09-.23.13-.35a1.36,1.36,0,0,0-.42-.13S474.77,453,474.72,453.11Z" transform="translate(-8.87 -7.55)"/><path class="cls-3" d="M561,544.26c3.31,5.55,6.83,11,9.79,16.71.81,1.57.5,4.23-.23,6a265.05,265.05,0,0,1-42.86,70c-33.66,39.93-75.86,68-123.31,88.77q-31.78,13.89-63.7,27.48c-1.87.79-4.85,1.2-6.36.26-32.8-20.45-65.5-41.19-92.08-69.75-20.1-21.59-34.44-46.47-39.56-76-3.58-20.63-.76-40.44,7.84-59.47,1.57-3.48,3.3-6.89,5-10.33l22.78,9.61c-.28,8.43,4.59,14.92,9,21.21,22.55,32.5,50.57,58.42,88.49,72.08v7c-18.82,4.5-28.68,22.69-22.9,41.16,4.16,13.27,14.7,20.09,25.9,26.29,1,.53,3.09.06,4.06-.72,6.57-5.3,13.81-10.08,19.23-16.4,9.19-10.75,9.05-25.37,1.19-37.15-4.75-7.12-11.49-11.35-19.67-13.67v-7.8c3.6-1.16,7-2,10.19-3.32,39.73-17.06,75.13-40,101.7-74.94a11,11,0,0,1,4.48-3.73c8-2.9,16-5.47,24.08-8.16l14.16,23.76,1.34-.54q-4.17-12.51-8.34-25c6-2.51,11.93-4.61,17.52-7.42,14.21-7.13,11.79-8.18,22.23,4.9,4.3,5.39,8.25,11.07,12.36,16.62l1.33-.77c-5.49-10.66-11-21.32-16.52-32.11,2.35-1.61,5.2-2.93,7.17-5,3.53-3.81,5.69-2.13,8.33,1C549.23,531.3,555.16,537.74,561,544.26ZM544.71,563l-.28-.21,0,.37Z" transform="translate(-8.87 -7.55)"/><path class="cls-2" d="M575.71,228.51c-9.7-3.81-19.43-7.57-29.1-11.46-2.54-1-4.81-2.78-7.4-3.59-9.08-2.85-18.28-5.35-27.38-8.15-11.15-3.42-22.13-7.47-33.39-10.4-12.78-3.32-25.81-5.71-38.72-8.51-1.92-.94-3.76-2.27-5.79-2.76C384.25,171.79,334,163.11,283,160.07c-20.89-1.24-41.87-.82-62.82-1.15l-3.48.13-2.4,0-2-.47c.09-.37.18-.73.28-1.09l.54-.95,4.6-1.88.19.13c1.71-.61,3.49-1.09,5.13-1.85,33.51-15.7,69-22.75,105.74-24,22.74-.75,45.15,2.38,67.54,5.63,25.82,3.74,51.67,7.7,76.4,16.21,18,6.19,35.47,13.93,53.17,21l-.13-.18,1.23,1-.08,0c.69.36,1.38.72,2.08,1.07l-.08-.05,8.17,4.88.17.2.24-.1,2.21,1.41,0-.07,1.2.88-.07-.07,4.22,2.79h0l1.91,1.24-.11-.06,1.78,1.32.05-.08,1.19.91-.12-.16,1.27,1.05,22,22.83Z" transform="translate(-8.87 -7.55)"/><path class="cls-4" d="M238.83,93.33l1.89-5.87,1.25-1h0c3.15-1.21,6.3-2.42,9.43-3.69a11.7,11.7,0,0,0-.39-1.31c4.85-3.13,9.72-6.21,14.53-9.39,2-1.33,4.5-2.5,5.68-4.41,2.6-4.19,6.29-6.16,10.83-7.09l12.54,1.79L296.13,60c4.2,1.74,10.68-1.07,12.93-5.39L312,53.46c-.18,1.21-.36,2.42-.68,4.66L331,54.51h1c2.66-.89,6.44-3.33,7.77-2.37,4.14,3,8.2,1.53,12.29,1.37a70.14,70.14,0,0,0,11.59-1.26c1-.2,1.6-2.38,2.39-3.66l6-.14,7.62,7.62c1.49,2,2.86,4.39,4.91,5.3,7.52,3.32,15.22,6.26,22.95,9.07,2.3.84,4.93.76,7.4,1.11l1,.06,3.14,2.83c.78-.2,1.73-.79,2.33-.54,4.24,1.8,8.37,3.88,12.62,5.67,10.28,4.35,20.59,8.67,31,12.8,1.47.59,3.39.08,5.1.08-14.43-7.3-28.94-13.64-43.48-19.92-4.84-2.09-9.74-4-14.62-6h0l-12-6-23-12c-1.59-.79-3.09-2-4.76-2.3-9.37-1.69-18.55-.46-27.6,2.22l-.33,0-6.26.1-11.8,4.17c-.6-2.54-.63-2.2-3.63-1.46-3.42.84-7,.85-10.57,1.22-2.45.21-4.92.29-7.35.65-9.56,1.43-19.12,2.94-28.67,4.43a15.7,15.7,0,0,1,1.23-2.94c4.63-6.89,12.79-3.61,19-6.32,5.05-2.2,11.45-1.16,17.2-2,2.26-.32,4.37-1.77,6.55-2.71l1.89,0c2.19,1.2,4.47,3.54,6.57,3.38a151.88,151.88,0,0,0,18.87-3c1.61-.33,3.11-1.57,4.49-2.61s2.75-2.47,4.12-3.72c6.28-.33,12.74.4,18.63-2.24l-.29-2.13L356.22,35.8l-1.31-.31a5.66,5.66,0,0,0,0-.92c.41-.5.87-1.47,1.23-1.43,4.52.43,8.42-.22,10.42-5,.15-.37,1.23-.64,1.79-.53,6.78,1.38,14.17-3.47,20.54,2l1.89.1L389,28.27l-4-2.93c8.21-1.95,13.1.28,17.21,7.54L408,29.46a20.82,20.82,0,0,1,3,1.21c5,2.93,9.91,5.95,14.86,8.93,6.17,5.63,10.5,14,20.57,13.88.16,0,.3,1.17.49,1.18,3.62.3,5.18,4.19,9.15,4.64a15.59,15.59,0,0,1,9.44,5.33c3.18,3.92,11.08,7,14.75,5.19,2.28,1.66,3.87,3.5,5.85,4.17,13.92,4.69,27.95,9.06,41.86,13.75,2.51.85,4.67,2.77,7,4.19-.28.53-.57,1.06-.86,1.58l-13.13-5-3-1h0l-3-1h0l-2-1h0l-13-4h0l-3.05-1c-5.36-1.68-10.79-3.18-16.06-5.11-5.65-2.08-11.15-4.57-16.72-6.88l-2.18-1,0,0-14-6h0l-1-1,.05,0-3-1h0l-1-1,.05,0-3-1h0l-3-2h0l-28-15h0L396.16,32.3l-3.37-1.82-.46,1.08,3.39,1.3c.77,1.19,1.54,2.39,2.32,3.58-.42,3.76.64,6.63,4.57,7.9,1.71.56,4.22.83,4.88,2,2.25,4.11,5,3.35,7.57,1.7l6.29,7.26L422.64,52c3.17,7.09,5.07,8.25,8.81,6.76,2.08,1.64,3.56,3.69,5.34,4,3.73.68,6.09,4.89,10.45,3.78.63-.16,1.62.89,2.39,1.44,2,1.46,4.06,2.94,6.06,4.46.81.62,1.54,1.35,2.31,2l-5.91-1-7.08-3h0l-2.38-1-.17,0-1.46-1h0l-3-1h0l-1-1,0,0-4.24-2-.37,0-10.41-5v0l-2-1h0a46.19,46.19,0,0,0-4.84-3.22c-6.68-3.33-13.43-6.53-20.15-9.78h0l-4-2h0c-3.15-3.29-6.76-5.56-11.31-5.67l-.81,1.41L386,43.47v2l-.23.42.23-.42c6.95,1.48,8.56,3,8.11,7.57a6.07,6.07,0,0,1,7.56,1.75c3.39,4.14,7,7.88,12.94,8,.59,0,1.15.5,1.75.71C420.64,65,425,66.29,429.18,68a98,98,0,0,1,10.93,5.39c1.12.63,1.59,2.76,2.67,3a60.05,60.05,0,0,0,8.36,1.22c.26-.27-.27.3-1.23,1.34L470,87.5c-.08.14-.16.27-.23.41l.22-.42,2.41,0c-.38,4,2.88,3.71,5.27,4.41,5.61,1.63,11.29,3,16.8,4.94,7.91,2.71,15.69,5.78,23.52,8.7h0c5,1.92,10.26,3.5,15.1,5.85,4.53,2.2,8.51,5.55,14,5.35.71,0,1.68,1.1,2.17,1.91,1,1.6,1.72,3.36,2.66,5.26l2.76-1.43q2.16,4.55,4.32,9.06c-1.5-1-3-2.1-4.51-3-6.81-4-13.65-8-20.48-12l-12-6h0c-1-.81-1.87-2-3-2.37q-21.33-7.6-42.73-15c-1.21-.42-2.63-.23-5-.4,1.17,1.64,1.61,2.77,2,2.76,4.23-.14,7.33,2.46,10.95,3.89,7.94,3.16,16.42,4.94,24.69,7.28.33,1.26.67,2.52,1,3.78l-2.16.25c.07.22.13.45.19.68l2.07-.82,6.11-.39c0,.56,0,1.11,0,1.66l-4.12.6-.18,1.21c1.25.45,2.48,1,3.76,1.33,3,.79,6.33,1,9.05,2.32,4.62,2.31,10.77,2.57,12.88,8.66,0,.1.28.12.63.25l3.89-1.48-.48,1.45,7.21,3.59c0,.11-.32,1.18,0,1.51q7,6.44,14.29,12.63c.3.25,1.33-.35,2-.56l.66,7.26L553,140.48h0c-.39-.68-.62-1.61-1.2-2-8.06-5.25-15.59-11.84-24.36-15.34-23.19-9.28-46.92-17.21-70.44-25.68v0l-1-1-24-11c-18.72-8.08-37.58-15.84-56.09-24.38a43.69,43.69,0,0,0-25.25-3.39c-20.46,3-40.84,6.47-61.23,9.87-9.63,1.61-19,3.62-27.05,10.09C255.05,83.57,246.72,88.17,238.83,93.33ZM414.73,50.9l-.37.84c.28.12.63.4.83.32s.26-.52.38-.8Zm14.63,20.33-.13.34.52.06a1,1,0,0,0-.09-.36C429.62,71.21,429.47,71.24,429.36,71.23Z" transform="translate(-8.87 -7.55)"/><path class="cls-4" d="M217.91,138.47q2.11-5,4.21-10c1.43.08,3,.64,4.25.15,6.28-2.55,13-4.36,17.81-9.71.78-.86,2.34-1,3.5-1.52,2.25-1.07,4.46-2.21,6.69-3.32,1.94-.69,4.4-.32,6.51-1,3.67-1.21,7-3.36,10.69-4.61,6-2,12.25-3.23,18.08-5.57,11.16-4.47,22.93-5.07,34.6-6.43,6.53-.77,13.11-1.1,19.66-1.64,3.32-.27,6.69-1.08,9.94-.76,4.84.47,9.6,1.72,14.39,2.64-.62-1.66-1.51-2.54-2.53-2.72-5.37-.95-10.76-2.41-16.16-2.45a235,235,0,0,0-61.41,7.72c-13.59,3.56-26.74,8.81-40.08,13.31q4.73-3.42,9.47-6.82l1.16,1.17c.13-1.42.25-2.84.38-4.27l2.85-.22,3.18-1.06,1.91-.86c3.26-1.73,7.05.78,10.65-2,1.85-1.41,5.69-1.8,8.57-2.54,1.76-.45,6.45.14,5.77-4.49l5-1,1.08,2.86L335.61,88l1.25,1.52a85.1,85.1,0,0,0,9-1.25c3.34-.83,7.74-.39,8.21-5.56.33,0,.66-.08,1-.14h.85l2.09,1,3.08,1.73,2.91.12c1.8,4.69,5.16,4.73,9.09,3l1.88,0,4.2,1.84a2.5,2.5,0,0,1,.9.14c2.17,3.82,5.68,2.59,8.93,2.37l-3.18,3.07,4.1,1.47,2-2c-.31-1.17-.61-2.33-.91-3.49,6.3,1.6,12.63,3.1,18.88,4.86A41.76,41.76,0,0,1,416,99.52l2-.08h.05c-2,3.63-2,5.14,0,5.37,6.36.75,12.08,3.28,17.9,5.69,1.55.65,3.6.1,6,.1a7.44,7.44,0,0,0,2.42,2.12,97.59,97.59,0,0,0,10.44,3.63,66,66,0,0,0,7,1.34c1.34.24,2.8.86,4,.54a43.85,43.85,0,0,0,6.12-2.65l1.91.07c-1.2,6-5.46,8.21-11.62,6.11a47.74,47.74,0,0,0-6.36-1.28l-16.22-6h-.38c-.35-.34-.64-.89-1.06-1-11.26-3.21-22.53-6.41-33.83-9.49-.62-.17-1.52.71-3.41,1.68,3.35,1,5.56,1.62,7.76,2.28,4.09,1.23,8.17,2.5,12.27,3.7,5.63,1.63,11.27,3.21,16.91,4.81.33.7.67,1.4,1,2.1h0c1.29,5.06,3.82,2,6,.91l2,0c-.64,1.39-1.29,2.77-2.18,4.68l5.55,1.24,1.68-4.9,1,.06.72,1.6c.42-.52.83-1,1.24-1.57q.5,0,1,0a41.78,41.78,0,0,0,1.64,5.34c.46,1,1.66,2.62,2.33,2.52,4.24-.58,7.56,1.26,11.32,2.83,10.69,4.44,21.69,8.11,32.26,12l4-2.79c.29,1.55.57,3.09.87,4.68,2.18-.47,4,6.51,6.46,1.77,2.59,1.8,4.91,3.28,7.08,5a54.14,54.14,0,0,1,4,3.84L511,150.49l0,0-2-1h0l-6.16-3a2.12,2.12,0,0,0-.56.05l-3.27-1h0l-2-1.4c-1.68-1-3.25-2.37-5.07-3-8.84-3.16-17.69-6.36-26.66-9.11-9.68-3-19.5-5.45-29.25-8.15l-15-4.3,0,0-42.36-10.08h-.13c-3.88-1.18-7.69-2.82-11.66-3.43-9-1.39-18.19-3.91-27-3-18.42,1.85-36.73,5.12-54.89,8.76-9.34,1.87-18.27,5.78-27.38,8.78L248,124.12l-7,3.36h0l-15.13,7Zm237-11.57,1-.41-1.23-2.2-.62.3Z" transform="translate(-8.87 -7.55)"/><path class="cls-5" d="M320.06,43.63c-2.18.93-4.29,2.38-6.55,2.7-5.75.81-12.15-.23-17.2,2-6.25,2.71-14.41-.57-19,6.32A15.7,15.7,0,0,0,276,57.56v0l-4,2h0l-4,3,0,0-2,1h0l-3,3,0,0-1.34,0-.61.81-3,2.17,0,0-9.43.84c3.71-5.66,7.22-11.46,11.16-17,6.66-9.29,12.9-19,20.6-27.39,7.43-8.09,15.74-16,27.42-17.83,5.31-.83,10.8-.5,16.21-.7,5.18,1.64,10.27,3.78,15.57,4.83q19.88,3.92,39.93,6.94c4.4.67,9,.15,13.48.17l0,0,2.17,0,8.87.8-2,3.18,6,6-5.82,3.42c-4.11-7.26-9-9.49-17.21-7.54l4,2.93c-.05.43-.09.86-.14,1.29-6.37-5.46-13.76-.61-20.54-2-.56-.11-1.64.16-1.79.53-2,4.82-5.9,5.47-10.42,5-.36,0-.82.93-1.23,1.43-1.61-.74-3.18-2-4.83-2.14C339,31.6,328,31,316.93,30.36c-.15-4.67-3.55-3.05-5.9-2.83-7.89.76-8.32.52-8-6.07,4.11-.21,8.26-.85,12.33-.55,12,.87,24,2.17,36,3.19,8.55.72,17.12,1.26,25.68,1.88l.06-1.18L360,22.41c-.63-1-1.14-2.79-1.89-2.89-6.14-.86-12.35-1.21-18.46-2.17-2.09-.33-4-2.8-6-2.84-4.13-.1-8.28,1.13-12.42,1.16-3.13,0-6.27-1-10.48-1.7-1.3.3-4,.84-6.61,1.52-3.79,1-7.55,2.06-11.31,3.09L290,20.48l-.41.46.45-.42,9,.78c-1,.73-2,1.42-3,2.19-1.38,1.09-2.72,2.23-4.08,3.35l3.88,3.34c3.6.77,7.16,2,10.8,2.24,16.06,1.17,32.14,2.07,48.22,3.07l1.31.3c-.08.61-.15,1.21-.22,1.81-1.37,1.25-2.65,2.62-4.12,3.72s-2.88,2.28-4.49,2.61a151.88,151.88,0,0,1-18.87,3c-2.1.16-4.38-2.18-6.57-3.38l14-1.7-.2-1.45H331l-.51-1.25L330,40.51h-2c-.76-.61-1.5-1.72-2.28-1.75-3.47-.14-7.19.86-10.37-.07-6-1.76-11.83-1.34-17.8-1-2.52.14-5.06,0-7.64,0l.22-2.12c-4.64-.27-7.47,1.12-7.26,6L282,41.5c-.34.35-.68.69-1,1h0l-5,2.56.8,1.34a32,32,0,0,0,5.37-.09c1.75-.32,3.38-1.65,5.1-1.72C298.23,44.16,309.15,43.93,320.06,43.63Zm-11.33-19.7a10.15,10.15,0,0,0-1.2-.76s-.46.45-.42.64a3.93,3.93,0,0,0,.53,1Zm-54.34,44.3a1.3,1.3,0,0,0-.13.41s.22.09.34.13a1.39,1.39,0,0,0,.13-.41S254.51,68.27,254.39,68.23Z" transform="translate(-8.87 -7.55)"/><path class="cls-5" d="M472,115.58a43.85,43.85,0,0,1-6.12,2.65c-1.2.32-2.66-.3-4-.54a66,66,0,0,1-7-1.34,97.59,97.59,0,0,1-10.44-3.63A7.44,7.44,0,0,1,442,110.6c-2.44,0-4.49.55-6-.1-5.82-2.41-11.54-4.94-17.9-5.69-2-.23-1.95-1.74,0-5.37l4.94,0h0c4,1.35,8,2.89,12.11,4,1.83.48,3.91.06,5.88,0l10.72,3.55c.42-1.15.85-2.36,1.29-3.57,2.12-.15,5.85-1,6.12-.34,2.42,5.64,6.33,2.19,9.63,2.55a11.05,11.05,0,0,0,5.26,1.78c3.16.24,6.7-.32,6.69,4.57,0,.29,1.06.57,1.65.86l1.47-3.46c5.18,2,10.08,3.94,15,5.83,4.24,1.63,8.39,4.09,12.78,4.68,10.63,1.44,18.09,8.62,26.43,14,4.8,3.08,10.07,4.25,15,6.56h0c.47,1.49.5,3.44,1.5,4.39,3.55,3.39,8.46,5.37,10.3,10.54.22.63,2,.7,3,1l1.5,12.29c-4.09-2.55-8.22-5-12.24-7.67s-8.26-5.47-12.23-8.43c-5.06-3.79-9.73-8.13-15-11.61-4.61-3-9.8-5.22-14.68-7.76L512,137.35l28,16.15-.37,3,2.39-1h0a20,20,0,0,0,15,11h0l1,1h0l4.17,3,8.72,7c.36,2,.72,4,1.07,6-3.37-2.06-6.73-4.14-10.12-6.17-5.73-3.43-9-10.61-16.82-10.87l-7.2-6.22,2.17-2.48-14-2.22-.05,0a52.13,52.13,0,0,0-4-3.84c-2.17-1.68-4.49-3.16-7.08-5-2.45,4.74-4.28-2.24-6.46-1.77-.3-1.59-.58-3.13-.87-4.68l-4,2.79c-10.57-3.86-21.57-7.53-32.26-12-3.76-1.57-7.08-3.41-11.32-2.83-.67.1-1.87-1.49-2.33-2.52a41.78,41.78,0,0,1-1.64-5.34l0,0a47.74,47.74,0,0,1,6.36,1.28c6.16,2.1,10.42-.06,11.62-6.11l3.45-.22h.42l4.2,2h0l6,2-.05,0,3.05,1,0,0c3.34,3.35,7.86,3.3,12.06,4.19l2.56-.84a13,13,0,0,0-2.95-2.16c-11.14-4.07-22.28-8.15-33.5-12-2.67-.91-5.65-.88-8.49-1.29l-.18,1.38,3.5,1.46,3.42,1.24.32,0Zm43.71,13c.19-.45.39-.89.58-1.33l-8.12-3.15c-.21.57-.41,1.13-.61,1.7Zm-20.8,6.62a6.79,6.79,0,0,0-.73,2c0,.31.72.94.85.87.51-.25,1.22-.67,1.29-1.11S495.67,136.12,494.93,135.24Zm-4.11.29.34-.93L488.6,134l-.22.87ZM520.65,130a7.32,7.32,0,0,0-1.3-1.1c-.19-.1-.55.18-.84.29.2.37.31.92.61,1.05S519.93,130.12,520.65,130ZM465.3,116.12c0-.11,0-.26-.07-.31a1.11,1.11,0,0,0-.37-.08c0,.18.06.35.1.53Zm56.12,33.77.21-.68-.37.11Z" transform="translate(-8.87 -7.55)"/><path class="cls-5" d="M502.28,146.49a2.12,2.12,0,0,1,.56-.05l6.16,3h0l2,1,0,0c4.59,2.9,9.06,6,13.83,8.6,2.44,1.32,5.43,1.63,8.18,2.39l0,0,4,4-.23.39.21-.41a19.45,19.45,0,0,1,1.94,1.25c3.89,3.17,7.17,7.53,13.1,6.75l0,0,1,1,0,0q2,1.51,4,3l0,0,1,1,0,0,2,1a7.8,7.8,0,0,1,2.07,1.15c3.62,3.92,7.17,7.9,10.75,11.86,2,4.65,4.88,9.19,2.89,14.55-.49,1.34-1.87,2.35-2.84,3.5l-22-22.82-1.27-1.05.12.16-1.19-.91-.05.08c-.59-.45-1.19-.89-1.78-1.32l.11.06L545,183.52h0l-4.22-2.79.07.07-1.2-.88,0,.07-2.21-1.41-.24.1-.17-.2-8.17-4.88.08.05c-.7-.35-1.39-.71-2.08-1.07l.08,0-1.23-1,.13.17c-1.17-1.05-2.16-2.51-3.52-3.11-10.77-4.67-21.6-9.22-32.44-13.73-5.58-2.32-11.22-4.48-16.83-6.71l.37-.88,7.4-1.11c-.14-2.1-.23-3.54-.3-4.56l-9.64-3.34c.08-.11-.52.75-.41.58-3.05-1.4-5.55-2.63-8.12-3.72-4.18-1.77-9.11.71-13.28-3.14-2-1.82-6.25-4.27-9.27-.45l-8.11-6.45-2,2.34-.78-4.81,7.11,1.09c9.75,2.7,19.57,5.19,29.25,8.15,9,2.75,17.82,5.95,26.66,9.11,1.82.64,3.39,2,5.07,3l2,1.4h0Z" transform="translate(-8.87 -7.55)"/><path class="cls-5" d="M432.42,64.47l.37,0,4.24,2,0,0,1,1h0l3,1h0l1.46,1,.18,0,2.37,1h0l7.08,3,5.91,1h0l5,2h0c.84.89,1.51,2.18,2.54,2.61,6.1,2.53,12.29,4.86,18.45,7.26l9,3.12,0,0,2,1,0,0c.15.47.2,1.28.47,1.36,7.88,2.26,15.79,4.46,23.69,6.67,6.57,3,13.21,5.83,19.7,9C544,110,549,112.81,554,115.5h0l6.69,5.09q1.17,4.95,2.35,9.92l-4,1h0q-2.16-4.51-4.32-9.06l-2.76,1.43c-.94-1.9-1.68-3.66-2.66-5.26-.49-.81-1.46-1.93-2.17-1.91-5.48.2-9.46-3.15-14-5.35-4.84-2.35-10.05-3.93-15.1-5.85l1.29-.37-.25-.38-1,.75c-7.83-2.92-15.61-6-23.52-8.7-5.51-1.9-11.19-3.31-16.8-4.94-2.39-.7-5.65-.39-5.27-4.41l-2.41,0h0L449.91,79c1-1,1.49-1.61,1.23-1.34a60.05,60.05,0,0,1-8.36-1.22c-1.08-.29-1.55-2.42-2.67-3A98,98,0,0,0,429.18,68c-4.19-1.72-8.54-3-12.82-4.5-.6-.21-1.16-.7-1.75-.71-5.91-.1-9.55-3.84-12.94-8a6.07,6.07,0,0,0-7.56-1.75C394.56,48.48,393,47,386,45.5h0v-2h5l4,2h0c3.51,2.35,6.83,5.06,10.56,7,4.64,2.36,9.61,4.06,14.43,6h0l2,1v0Z" transform="translate(-8.87 -7.55)"/><path class="cls-4" d="M453,103.48c-.44,1.21-.87,2.42-1.29,3.57L441,103.5l-18-4h0l-32.17-9.06-4.67-1a29.1,29.1,0,0,0-3.85-2C367,82,351.62,78.9,335.06,81.25c-21.2,3-42.22,6.38-62.56,13.21-.9.3-1.56,1.32-2.34,2l-2.08,0-19.11,8,0,0-1,1h0l-2,1h0c-1.92.76-3.91,1.39-5.77,2.29-3.77,1.84-7.46,3.82-11.19,5.74q.75-2.54,1.52-5.09c2-.63,4.09-1,5.88-1.94,5.94-3.22,11.77-6.67,17.64-10l.78-.11c1.14-.07,2.42.17,3.39-.28,4.76-2.2,9.32-4.86,14.17-6.83a150.47,150.47,0,0,1,15-4.93A49.11,49.11,0,0,1,296,83.7c3.15-.32,6.71.63,9.43-.52,6-2.52,11.74-4.68,18.39-4,1.61.16,3.6-2.24,5-1.88,4.59,1.15,8.85,1.18,13.15-.89.58-.28,1.62.41,1.53.38,1.49-2,2.55-3.48,3.6-4.93l2.86.75L355.67,77c-.26-2.43-.41-3.81-.56-5.19l1.91-.13,2-.05a26.3,26.3,0,0,1,4.37.63c8.54,2.71,17.06,5.53,25.58,8.31v6.5l1.31,0,1-3,3,3.36c.3-1.74.51-3,.73-4.2l2,.26c3.77,5.83,9.11,8.13,15.94,7a124.51,124.51,0,0,0,16.26,4.86C437.35,97.07,445.09,100.7,453,103.48ZM398.66,87.63c-.13-.26-.2-.64-.39-.73s-.51.14-.77.23l.49,1Z" transform="translate(-8.87 -7.55)"/><path class="cls-6" d="M147.36,439.74c-5.84-2.37-3,3.58-5.19,5.17l-3-1.4-2-6.85c-.4-4.61-.75-9.24-1.21-13.85-1.71-16.95-1.76-33.83,2.49-51.59l-11.1,8.6c1.07-7.06,1.39-13.32,3.06-19.19,2.17-7.6,5.45-14.88,8.13-22.34a14.07,14.07,0,0,0,.3-3.76l5.16,2c-3.76,9.43-7.48,18.88-7.44,30l9.88-7.53c-2.86,21.49-6.7,42.48-2.46,63.84l2.13-20.6.45.08,6.54,40.17-3.56,4.18-.47-2.15c.11-.11.33-.29.32-.32a5.89,5.89,0,0,0-.51-.61Z" transform="translate(-8.87 -7.55)"/><path class="cls-4" d="M545.37,69.43l2.4,6.23c-5.39-2.78-10.61-6-16.22-8.26-12.71-5.07-25.62-9.6-39.55-9.88-.07-.32-.08-.88-.22-.92-8.7-2.3-17.55-4.21-24.79-10.1l-2,0h0l-3-2,0,0-2-1h0l-4-2h0l-5-3h0l-5.28-3-.28,0-2.43-1h0l-1-1,0,0-1.26-1-.32,0-3.39-2,0,0-2-1h0l-3-2h0l-4-2h0l-10-6.93,12-1.25c4,1.79,7.91,3.65,11.92,5.33,2.64,1.1,5.4,1.93,8.1,2.88h0l2,1,0,0c4,3.8,7.61,8.34,14,8h0A35.72,35.72,0,0,0,468.91,37c4.55,3.08,9,6.09,14.62,7.36,6,1.35,11.69,4,17.51,6.14-.77,1.44-1.55,2.88-2.53,4.72a33.24,33.24,0,0,0,3.15,1.12c2.7-5.9,4.56-.15,6.77.4,1.64.41,3.58,1.15,5,.65,4-1.4,6.59-.11,8,3.07,2,0,4.47-.72,5.26.11C531.85,65.93,539.29,66.22,545.37,69.43Z" transform="translate(-8.87 -7.55)"/><path class="cls-6" d="M561,544.26c-5.82-6.52-11.75-13-17.44-19.6-2.64-3.09-4.8-4.77-8.33-1-2,2.12-4.82,3.44-7.17,5,5.54,10.79,11,21.45,16.52,32.11l-1.33.77c-4.11-5.55-8.06-11.23-12.36-16.62-10.44-13.08-8-12-22.23-4.9-5.59,2.81-11.53,4.91-17.52,7.42q4.17,12.48,8.34,25l-1.34.54L484,549.32c-1.11-2.33-2.23-4.65-3.35-7l5.92-1.8c1.24,1.68,2.48,3.37,3.66,5,2-1.13,3.77-2,5.41-3.08,7.48-4.93,14.92-9.93,22.38-14.9,1.37-1.44,2.75-2.87,4.13-4.31,1.19.07,2.8.68,3.5.13,4-3.14,7.71-6.55,11.54-9.87,4.12-2.45.69-6.05,1.37-9l4.15,1.88c-.37,4.19.62,7.8,4.42,10.18l14.11,24.61C561.13,542.19,561.06,543.22,561,544.26Z" transform="translate(-8.87 -7.55)"/><path class="cls-5" d="M545.37,69.43c-6.08-3.21-13.52-3.5-18.65-8.91-.79-.83-3.21-.11-5.26-.11-1.42-3.18-4-4.47-8-3.07-1.44.5-3.38-.24-5-.65-2.21-.55-4.07-6.3-6.77-.4a33.24,33.24,0,0,1-3.15-1.12c1-1.84,1.76-3.28,2.53-4.72l13,1,3.68-.58,0-1.44L514,48.55h0l-.33-1.22-.78,1.27a.64.64,0,0,1-.49,0l-3.54,0a4.52,4.52,0,0,1-.82-.05l-6.34-5.58c-.78.58-2,2.11-2.67,1.9-3.74-1.2-7.34-2.82-11-4.3l.23-.42-.23.42-6,0-.05,0L483,34.49l1.2,1.55.32-.33L483,34.51l1-2c4.07,1.27,8.14,2.58,12.23,3.81,5.91,1.77,11.83,3.48,17.75,5.22.38.25.75.5,1.14.73,0,0,.17-.25.27-.38L514,41.47l-3-2c-4.58-5-11-5.48-17-6.92l-.08,0c-.24-.58-.33-1.52-.74-1.69-8.31-3.51-16.66-6.93-25-10.37,3.17-.27,6.56-1.38,9.5-.66,15,3.63,28.67,10,40.36,20.31a7.8,7.8,0,0,1,1.24,2.08l-2.62,1.22h4.65c5.35,2.61,8.76,7,11.81,12,1.67,2.74,5,4.42,7.2,6.89A70.88,70.88,0,0,1,545.37,69.43ZM522.62,58.2c-.11,0-.26,0-.31.08a.92.92,0,0,0-.08.38l.53-.11Z" transform="translate(-8.87 -7.55)"/><path class="cls-4" d="M233,103.5c1-2.36,1.93-4.71,2.89-7.07,1.2.22,2.74,1,3.57.57,6.45-3.56,12.81-7.33,19.13-11.14,3.22-1.94,7.28-3.45,9.24-6.32,3.37-4.94,8.8-4.55,13.1-6.88.16,1,.31,2.08.35,2.34,2.11-.27,3.8-.6,5.51-.66s4.38.76,4.69.17c2-3.85,5.76-2.93,8.78-3.51,5.71-1.1,11.54-1.66,17.49-2.47.05.56.13,1.53.22,2.74,2-1.84,2.53-5.3,6.52-2.86,1.49.91,4.78-1.13,7.25-1.83,1.39-.54,2.87-.67,4.09-1.29,4.18-2.12,8.16-1.55,9.43.81l14-2.42,2.42,3.59c.81-2.24,1.4-3.9,2.44-6.77l9.1,8.12L377,65.23l3.06,1.2c-1.06,2-2.11,4.09-3.16,6.13-8.13-1.73-15.87-4.88-24.67-3.29-10.69,1.92-21.7,2.08-32.4,3.94-12.68,2.21-25.09,6.06-37.79,8-15.77,2.46-28.25,11.25-41.26,19.24Zm142-33-.4-.23.4.23.42.23Z" transform="translate(-8.87 -7.55)"/><path class="cls-4" d="M215.4,148.72c.39-2.44.79-4.89,1.18-7.34,2-.1,4.36.38,6.09-.41,7-3.18,13.54-7.19,20.6-10.08,9.87-4,20.08-7.28,30-11.13,1.54-.59,2.54-2.6,3.78-4l1-.28,1-.73L293,112.45c.36.34.75,1,1.07,1,4-.43,8-.84,12-1.54,1.26-.22,2.48-2,3.54-1.83,6.08.9,12.16,4.37,18.09-.68.33-.29,2.21.49,2.63,1.21A25.42,25.42,0,0,1,332,115.4c-12.84,1.63-25.78,2.66-38.47,5.07-10.65,2-21.09,5.34-31.45,8.65-7.18,2.3-14.05,5.56-21.06,8.39l0,0a26.24,26.24,0,0,0-4.65,1.22C229.34,142,222.38,145.37,215.4,148.72Z" transform="translate(-8.87 -7.55)"/><path class="cls-7" d="M380.07,66.43,377,65.24l-2.91-.84-1-.26c-1.11-.88-2.08-2.09-3.34-2.58-9.21-3.56-18.48-1.48-27.73-.07l0,0c-2.44.31-4.9.51-7.33.94-10.33,1.81-20.66,3.62-31,5.57-7.61,1.43-15.18,3.08-22.77,4.64-4.3,2.33-9.73,1.94-13.1,6.88-2,2.87-6,4.38-9.24,6.32-6.32,3.81-12.68,7.58-19.13,11.14-.83.46-2.37-.35-3.57-.57l3-3.1c7.88-5.16,16.21-9.76,23.53-15.63,8.09-6.47,17.42-8.48,27.05-10.09,20.39-3.4,40.77-6.9,61.23-9.87a43.69,43.69,0,0,1,25.25,3.39c18.51,8.54,37.37,16.3,56.09,24.38-.36,2.92-1.45,2.88-4,1.69-11.16-5.2-22.45-10.11-33.73-15C389.57,70.13,384.8,68.33,380.07,66.43Z" transform="translate(-8.87 -7.55)"/><path class="cls-4" d="M402,23.44l2-3.17,9-1.89,1,1.11-5.91,1.34c5.36,2.58,10.15,5.17,15.16,7.21C427,29.55,430,31.4,431,35.49l-.4.42.42-.39,13,7-1.05.74L444,42.5c6.11,3.09,12.24,6.15,18.32,9.3,3,1.54,5.9,3.24,8.83,4.89s5.47,3.31,8.35,4.68a55.54,55.54,0,0,0,6.34,2.19l4.83-2.48-1.14,4.2c6.82,1.5,13.29,2.7,19.63,4.38,3.31.88,4.77.09,4.86-3.28l1.13,1c-.57,3.52,1.51,4.84,4.43,6C526.72,76,533.77,79,540.79,82c.63.27.75,1.7,1.11,2.59l-3-1.12a2.73,2.73,0,0,0-.64,0l-14.28-6v0l-3.21-1a1.41,1.41,0,0,0-.5,0l-16.31-5,0,0-3-1a7.85,7.85,0,0,0-.84,0l-3.38-1-.38,0-6.58-2-.44,0-5.35-2,0,0-3.24-1c-5.28-2-10.93-3.46-15.68-6.36-2.6-1.6-6.86.79-7.94-3.59l-2.15-1h0l-3.16-2-.47,0-2.37-1h0l-1-1h0l-4-2h0c-.33-.34-.67-.67-1-1h0l-3-1h0c-2.13-1.63-4.09-3.55-6.4-4.83C423.14,34.81,412.56,29.16,402,23.44Z" transform="translate(-8.87 -7.55)"/><path class="cls-7" d="M248.06,112.57c13.34-4.5,26.49-9.75,40.08-13.31a235,235,0,0,1,61.41-7.72c5.4,0,10.79,1.5,16.16,2.45,1,.18,1.91,1.06,2.53,2.72-4.79-.92-9.55-2.17-14.39-2.64-3.25-.32-6.62.49-9.94.76-6.55.54-13.13.87-19.66,1.64-11.67,1.36-23.44,2-34.6,6.43-5.83,2.34-12.11,3.53-18.08,5.57-3.66,1.25-7,3.4-10.69,4.61-2.11.7-4.57.33-6.51,1-2.23,1.11-4.44,2.25-6.69,3.32-1.16.55-2.72.66-3.5,1.52-4.82,5.35-11.53,7.16-17.81,9.71-1.2.49-2.82-.07-4.25-.15l1-2.88L236,118.54h0l2-1h0l3.26-2,.29,0,.29,0,2.16-1v0l4-2Z" transform="translate(-8.87 -7.55)"/><path class="cls-5" d="M509.94,110.44c-.34-1.26-.68-2.52-1-3.78L522,110.48h0l12,6c6.83,4,13.67,8,20.48,12,1.56.91,3,2,4.51,3h0l4.76,4.07c.47,2.59,1,5.17,1.42,7.76-.68.21-1.71.81-2,.56q-7.24-6.19-14.29-12.63c-.37-.33,0-1.4,0-1.51l-7.21-3.59.48-1.45-3.89,1.48c-.35-.13-.6-.15-.63-.25-2.11-6.09-8.26-6.35-12.88-8.66-2.72-1.36-6-1.53-9.05-2.32-1.28-.33-2.51-.88-3.76-1.33l.18-1.21,4.12-.6c0-.55,0-1.1,0-1.66l-6.11.39Z" transform="translate(-8.87 -7.55)"/><path class="cls-4" d="M570.91,177.51l-8.72-7-4.17-3h0l-1-1h0l-15-11h0c-.68-.65-1.35-1.31-2-2l-28-16.15,3.24-4.09c4.88,2.54,10.07,4.72,14.68,7.76,5.26,3.48,9.93,7.82,15,11.61,4,3,8.09,5.71,12.23,8.43s8.15,5.12,12.24,7.67C569.88,171.65,570.4,174.58,570.91,177.51Z" transform="translate(-8.87 -7.55)"/><path class="cls-7" d="M515.15,67.34l-1.13-1a39,39,0,0,0-4.44-1.65c-4.85-1.15-9.72-2.17-14.59-3.24l0,0a29.46,29.46,0,0,1-2.53-2.33c-.34-.39-.33-1.1-.48-1.66,13.93.28,26.84,4.81,39.55,9.88,5.61,2.24,10.83,5.48,16.22,8.26l4.57,8.84L536,73.46l-1,0h-6c-.26-.42-.7-2.23-1.66-2.58C523.35,69.48,519.22,68.49,515.15,67.34Zm6.53-1.45c0,.12,0,.28.08.33a1,1,0,0,0,.39.08l-.11-.55Z" transform="translate(-8.87 -7.55)"/><path class="cls-5" d="M277.09,115.8c-1.24,1.36-2.24,3.37-3.78,4-10,3.85-20.17,7.08-30,11.13-7.06,2.89-13.65,6.9-20.6,10.08-1.73.79-4,.31-6.09.41.45-1,.89-1.94,1.33-2.91l8-4c1.32,0,2.9.49,3.91-.07,3.84-2.12,7.49-4.57,11.22-6.9h0l7-3.36,9.58-3.64c2.71-.61,5.43-1.17,8.13-1.82C269.5,117.75,273.29,116.76,277.09,115.8Z" transform="translate(-8.87 -7.55)"/><path class="cls-5" d="M445.06,17.51c4.71.4,9.45.58,14.12,1.3,2.67.42,5.21,1.71,7.81,2.61l15,8c0,1,.05,1.93.07,2.9l-7.51,2.87c-1.18-2.27-1.52-4.11-2.42-4.46-4.28-1.65-8.72-2.89-13.1-4.29h0Z" transform="translate(-8.87 -7.55)"/><path class="cls-5" d="M515.15,67.34c4.07,1.15,8.2,2.14,12.17,3.57,1,.35,1.4,2.16,1.66,2.58h6l0,0,1,0,.07-.07,16.31,11,2.34,10L542,85.49l0,0c0-.31-.06-.62-.11-.93-.36-.89-.48-2.32-1.11-2.59-7-3-14.07-6-21.21-8.7C516.66,72.18,514.58,70.86,515.15,67.34Z" transform="translate(-8.87 -7.55)"/><path class="cls-4" d="M459,26.49c4.38,1.4,8.82,2.64,13.1,4.29.9.35,1.24,2.19,2.42,4.46L482,32.37l2,.13-1,2,0,0-1.08,6.08c-1.84-.64-3.7-1.22-5.52-1.93-3.49-1.34-7-2.76-10.42-4.14h0l-14-8,0,0-2-1h0l-9-5.93q2-1,4.06-2.06l13.95,9c-.08.14-.16.27-.23.41Z" transform="translate(-8.87 -7.55)"/><path class="cls-7" d="M393,19.49c-4.5,0-9.08.5-13.48-.17q-20-3.06-39.93-6.94c-5.3-1.05-10.39-3.19-15.57-4.83l32.09,4.53L380,16.55Z" transform="translate(-8.87 -7.55)"/><path class="cls-6" d="M238.25,547.52l-22.78-9.61c-.14-.48-.27-1-.41-1.43l6.27-3.64,20,11.86Z" transform="translate(-8.87 -7.55)"/><path class="cls-5" d="M241.88,115.58l-.29,0-.3,0-3.25,2h0l-2,1h0l-8.58,2.57-.62-2.84,1-1.94c.55.29,1.27,1,1.61.8,6-2.77,13.1-3.89,16.53-10.65h0l2-1h0l1-1,0,0,10.1-1.84-.38,4.27-1.16-1.17q-4.74,3.41-9.47,6.82l0,0-4,2v0Z" transform="translate(-8.87 -7.55)"/><path class="cls-4" d="M572.86,192.51c-3.58-4-7.13-7.94-10.75-11.86A7.8,7.8,0,0,0,560,179.5l-2-1,0,0-1-1,0,0q-2-1.5-4-3l0,0-1-1,0,0-7.28-6.73.29-.3c7.78.26,11.09,7.44,16.82,10.87,3.39,2,6.75,4.11,10.12,6.17Q572.43,188,572.86,192.51Z" transform="translate(-8.87 -7.55)"/><path class="cls-4" d="M556.92,100.5q.51,4,1,8l-6-4.17L536.74,92.85,542,91.52l9,6,0,0Z" transform="translate(-8.87 -7.55)"/><path class="cls-7" d="M556.92,100.5l-5.91-3a1.8,1.8,0,0,0,.34-.17c.06,0,0-.18.06-.27l-.42.42-9-6c2.5-2,.34-4,0-6l12.69,9.05Q555.79,97.51,556.92,100.5Z" transform="translate(-8.87 -7.55)"/><path class="cls-4" d="M380,16.55l-23.85-4.47c1.24-4,4.75-2.81,7-2.3,6.06,1.34,12,3.42,17.93,5.21Z" transform="translate(-8.87 -7.55)"/><path class="cls-5" d="M233,103.5l7.8-3c4,.17,8,.65,10.73-3.35.22-.32,1.66.18,2.53.3-5.87,3.37-11.7,6.82-17.64,10-1.79,1-3.91,1.31-5.88,1.94Z" transform="translate(-8.87 -7.55)"/><path class="cls-4" d="M482,29.47l-15-8,1.16-.91c8.35,3.44,16.7,6.86,25,10.37.41.17.5,1.11.74,1.69-2-.56-4.08-1.12-6.14-1.66S483.89,30,482,29.47Z" transform="translate(-8.87 -7.55)"/><path class="cls-7" d="M567.87,156.44c-1-.33-2.82-.4-3-1-1.84-5.17-6.75-7.15-10.3-10.54-1-1-1-2.9-1.5-4.39l12.82,10.11Z" transform="translate(-8.87 -7.55)"/><path class="cls-4" d="M248.64,70.42l9.43-.84L245,80.52h-1Z" transform="translate(-8.87 -7.55)"/><path class="cls-7" d="M215.4,148.72c7-3.35,13.94-6.74,21-10a26.24,26.24,0,0,1,4.65-1.22l-7,5.06c-4.3.83-8.44,1.95-11,6v0l-8,2Z" transform="translate(-8.87 -7.55)"/><path class="cls-7" d="M246,106.48c-3.43,6.76-10.53,7.88-16.53,10.65-.34.16-1.06-.51-1.61-.8l1.18-1.82c3.73-1.92,7.42-3.9,11.19-5.74C242.06,107.87,244.05,107.24,246,106.48Z" transform="translate(-8.87 -7.55)"/><path class="cls-5" d="M559,112.5l1.77,5.92L554,115.5h0l-2-5c0-.65,0-1.31,0-2h0l6.09,2-.05,0C558.36,111.11,558.68,111.81,559,112.5Z" transform="translate(-8.87 -7.55)"/><path class="cls-7" d="M441,19.57l9,5.93c-2.7-.95-5.46-1.78-8.1-2.88-4-1.68-7.95-3.54-11.92-5.33l8,1.27,1.21.67Z" transform="translate(-8.87 -7.55)"/><path class="cls-4" d="M226.83,118.27l.62,2.84,8.58-2.57-12.86,7.08Z" transform="translate(-8.87 -7.55)"/><path class="cls-5" d="M244,80.51h1l5.93.92a11.7,11.7,0,0,1,.39,1.31c-3.13,1.27-6.28,2.48-9.43,3.69C242.62,84.46,243.32,82.48,244,80.51Z" transform="translate(-8.87 -7.55)"/><path class="cls-5" d="M215.06,150.49l8-2-5.14,6.27-.19-.13-3.75-.19C214.31,153.16,214.68,151.82,215.06,150.49Z" transform="translate(-8.87 -7.55)"/><path class="cls-5" d="M380,16.55,381.09,15l12,3.24L393,19.51l0,0Z" transform="translate(-8.87 -7.55)"/><path class="cls-7" d="M414,19.49l-1-1.11,5,.16,10,6.93Z" transform="translate(-8.87 -7.55)"/><path class="cls-7" d="M558.09,110.46l-6.09-2c0-1.38,0-2.75,0-4.13l6,4.17C558,109.18,558.05,109.82,558.09,110.46Z" transform="translate(-8.87 -7.55)"/><path class="cls-4" d="M563.76,135.57,559,131.5l4-1Z" transform="translate(-8.87 -7.55)"/><path class="cls-4" d="M554,115.5l6.76,2.92c0,.72,0,1.44-.07,2.17Z" transform="translate(-8.87 -7.55)"/><path class="cls-6" d="M141.93,454.53l.71-4.89c3.42,2.34,3.25,3.62-.52,5.86Z" transform="translate(-8.87 -7.55)"/><path class="cls-4" d="M213.94,154.49l3.75.19-4.6,1.88Z" transform="translate(-8.87 -7.55)"/><path class="cls-7" d="M521.29,43.46h-4.65l2.62-1.22Z" transform="translate(-8.87 -7.55)"/><path class="cls-2" d="M103.64,575l0-.33.4.06Z" transform="translate(-8.87 -7.55)"/><path class="cls-7" d="M393,19.51l.06-1.28,2.11,1.24Z" transform="translate(-8.87 -7.55)"/><path class="cls-7" d="M559,112.5c-.31-.69-.63-1.39-1-2.08C558.36,111.11,558.68,111.81,559,112.5Z" transform="translate(-8.87 -7.55)"/><path class="cls-7" d="M212.55,157.51c-.1.36-.19.72-.28,1.09a2.19,2.19,0,0,1-.55-.17C212,158.13,212.27,157.82,212.55,157.51Z" transform="translate(-8.87 -7.55)"/><path class="cls-5" d="M242,86.45l-1.25,1Z" transform="translate(-8.87 -7.55)"/><path class="cls-4" d="M439.17,19.23,438,18.56Z" transform="translate(-8.87 -7.55)"/><path class="cls-8" d="M511.58,270.7l5.33,3.83,1.09.91,2.91,1.71-1.08,2.12c-6.85-1.39-13.65-3-20.54-4.11-8.87-1.45-17.88-2.1-26.68-3.84-12.76-2.52-25.43-1.78-38.06.12-18.77,2.83-35.74,10-50.39,22.29-4.07,3.42-8.28,6.66-12.38,9.95-12.29-11.89-55.41-8.87-68.69,0-13.45-11.76-26.76-23.53-44.3-29.2-21-6.78-42.21-7.24-63.62-3.53-9.79,1.69-19.34,4.73-29,7.11a9.86,9.86,0,0,1-5.6-.2,47.3,47.3,0,0,1,4.16-5.58c14-14.06,28.43-27.6,46.28-36.85.76-.4,1.25-1.32,1.87-2,17.9-4.78,35.55-11.25,53.75-13.85s37.15-1.37,55.76-1.86c3.1-.08,5.12,1.26,6,4.15,3.22,10.24,6.39,20.5,9.54,30.65.66-10.69,1.35-21.87,2.08-33.76,3.5.21,7.89.35,12.25.77,42,4.07,83.41,11.59,123.57,24.92a145.51,145.51,0,0,1,22.43,9.59c3.15,1.67,5.13,5.56,7.64,8.44l-4,1ZM289.89,285.82l.08-.24-.21.17c.32-11.59-11.5-28.45-19.47-27.85,2.26,3,4.64,5.94,6.79,9C281.42,273.19,285.64,279.52,289.89,285.82Zm120.39-30.16c-9.52,1.18-21.86,18.34-18.63,26.1Z" transform="translate(-8.87 -7.55)"/><path class="cls-6" d="M552,304.33l-.07-7.58c2.52,1.82,5.32,3.35,7.51,5.5,19.74,19.48,35.62,41.36,42.19,68.92.34,1.45.69,2.91,1,4.39a17,17,0,0,1-.09,2.51c-1.57-1.74-2.55-3-3.67-4s-2.23-1.85-4.33-3.56c4.38,13.58,8.38,26,12.82,39.75L593,402.85c4,16.5,6.51,32.17,3.76,49.7l-5.27-9.86c-2.51,14.3-3.34,28-10.4,41.4l-3.22-10.5c-2.68,9.76-3.27,19.88-9.74,27.87-1.08-4.12-2.12-8.12-3.17-12.12l2.13-10.1c.64-.61,1.71-1.13,1.83-1.82,1.55-8.9,3-17.83,4.38-26.49,1.13,3.87,2.37,8.07,3.6,12.28l1.71-.07c5.79-12.86,2.54-26.86,3.62-41,2.14,3.3,3.81,5.89,6.2,9.59,2.71-13.88-3.09-25.28-5.53-37l13.37,5C593,382.31,584,368.33,576.67,352.89L590,360.48l.57.65.11-.68-.76.16c-.78-2.84-1.17-5.86-2.41-8.48-7.62-16-18.35-29.9-30.46-42.76C555.43,307.64,553.69,306,552,304.33Z" transform="translate(-8.87 -7.55)"/><path class="cls-7" d="M220.19,158.92c20.95.33,41.93-.09,62.82,1.15,51,3,101.24,11.72,150.92,23.57,2,.49,3.87,1.82,5.79,2.76-28.7-5.68-57.3-11.9-86.12-16.86-19.18-3.3-38.61-5.55-58-6.95-24.45-1.76-49-2.17-73.49-3.18A9.32,9.32,0,0,1,220.19,158.92Z" transform="translate(-8.87 -7.55)"/><path class="cls-6" d="M511.58,270.7l-9.66-7.19,4-1,7.09,3.86C512.53,267.82,512.05,269.26,511.58,270.7Z" transform="translate(-8.87 -7.55)"/><path class="cls-6" d="M143,284.44l-4.21,1.78Z" transform="translate(-8.87 -7.55)"/><path class="cls-7" d="M214.31,159.07l2.4,0Z" transform="translate(-8.87 -7.55)"/><path class="cls-6" d="M135,289.46v0Z" transform="translate(-8.87 -7.55)"/><path class="cls-6" d="M135.08,302.51l.9,3.05Z" transform="translate(-8.87 -7.55)"/><path class="cls-6" d="M134,333.47l1,1.75-1.35,0Z" transform="translate(-8.87 -7.55)"/><path class="cls-6" d="M551.15,510.06l1.94-2.54Z" transform="translate(-8.87 -7.55)"/><path class="cls-6" d="M136.83,287.2l-1.64,1.31Z" transform="translate(-8.87 -7.55)"/><path class="cls-6" d="M138.8,286.15l-2,1.11Z" transform="translate(-8.87 -7.55)"/><path class="cls-6" d="M143,314.44l-.94,2.05Z" transform="translate(-8.87 -7.55)"/><path class="cls-6" d="M139.89,320.24c-.39.71-.78,1.42-1.18,2.12Z" transform="translate(-8.87 -7.55)"/><path class="cls-6" d="M135.85,328.08l-1,2.44Z" transform="translate(-8.87 -7.55)"/><path class="cls-6" d="M134.83,330.93l-.87,2.56Z" transform="translate(-8.87 -7.55)"/><path class="cls-6" d="M555.14,504.67l1.29-1.86Z" transform="translate(-8.87 -7.55)"/><path class="cls-6" d="M554,506.37l1.24-1.79Z" transform="translate(-8.87 -7.55)"/><path class="cls-6" d="M519.52,270.37l-1.46-1.05Z" transform="translate(-8.87 -7.55)"/><path class="cls-6" d="M142.93,313.49v1A2.12,2.12,0,0,1,142.93,313.49Z" transform="translate(-8.87 -7.55)"/><path class="cls-6" d="M138.82,322.25l-.87,1.26Z" transform="translate(-8.87 -7.55)"/><path class="cls-6" d="M137.3,334.67a1.54,1.54,0,0,1,.79-.11l-.38.25Z" transform="translate(-8.87 -7.55)"/><path class="cls-6" d="M557.15,501.72l.91-1.2Z" transform="translate(-8.87 -7.55)"/><path class="cls-6" d="M556.36,502.84l.88-1.21Z" transform="translate(-8.87 -7.55)"/><path class="cls-8" d="M436,421.37l2.86.5,2.06.82c7.92,5.24,15.42,10.92,20.18,19.41,1.21,2.15,2.19,4.41,3.53,7.14-11,1.43-21.48,2.76-31.92,4.16a93.3,93.3,0,0,0-10.82,1.85c-1.25.31-2.17,1.91-3.24,2.93l.89,1.08,47.62-4.06c.21,4.35.39,8.12.63,13.21-9.65,0-18.94-.25-28.21.09a144.74,144.74,0,0,0-17.83,2.11c-1.51.25-2.8,1.81-4.19,2.76.26.42.53.83.79,1.24L466.27,473c-1.74,4.89-2.8,8.47-4.36,11.82-.4.85-2.36,1.33-3.63,1.36-17.45.52-34.91.91-52.36,1.46-1,0-1.95,1.25-2.92,1.91.89.73,1.69,1.93,2.68,2.12,4.07.8,8.2,1.29,12.3,1.89l3,1.48,16.62,8.22c3,3.16-.16,3.89-2.06,4.74a82.68,82.68,0,0,1-37.93,7.24,84.27,84.27,0,0,1-48.81-18.05c-6.59-5.12-8.19-11.8-7.64-19.44a5.59,5.59,0,0,1,2.24-3.31c4.31-3.33,7.58-6.32,6.64-13.08-1.35-9.68,6.69-16.05,16.37-14.61a5.41,5.41,0,0,0,4.14-1.39,23.35,23.35,0,0,0,3.68-5.87c2.2-4.59,1.39-7.14-3.49-9s-9.8-4-14.78-4.12c-14.75-.42-29.55-.24-44.31.41-4.79.21-9.64,2.27-14.18,4.15-2.79,1.16-5.52,3.36-2.36,7.14a28.62,28.62,0,0,1,2.72,4.74c1.86,3.39,3.93,4.9,8.39,3.64,8-2.25,15.37,4.32,15.4,14.18,0,6.05,2.42,9.54,7,12.65,2,1.36,4.89,3.69,4.77,5.39-.34,4.77-.54,10.86-3.45,13.93C314.41,509,295,516.37,272.3,513.87c-9.85-1.09-19.38-3.4-27.3-9.89-1-.81-1.37-2.36-2-3.57l13.33-5.69-.92-2.11L242,498.35c-5.68.87-6.88-4.76-10.48-6.89.06-.53.12-1.06.19-1.58l24.56,1.58-.33,1.06c0,2.36,0,2.41,2.09,1.79a62.12,62.12,0,0,0,12.12-4.67c-1.81-.92-3.57-2.47-5.46-2.65q-14.65-1.41-29.37-2.19c-7.35-.39-7.37-.2-9.08-7.45-.26-1.12-.36-2.28-.55-3.49,7.22,0,14.28-.16,21.32.06,5.32.16,10.61.95,15.93,1.16,1.2.05,2.46-1.14,3.68-1.75l-.41-2.51L224.89,467V454.8l38.62,5.25.95-1.87c-1.71-1.07-3.3-2.76-5.15-3.12-8.82-1.71-17.7-3.07-26.56-4.55-1.6-.26-3.2-.47-5.17-.77,1-6.36,3.44-11.79,7.71-15.64,6.12-5.51,12.37-11.84,19.77-14.75,28.52-11.23,45.59-32.56,56-60.15,3.29-8.71,5.5-17.84,7.91-26.86.45-1.71-.19-3.9-.84-5.68-1.77-4.78-1-8.39,4.05-9.77a84.2,84.2,0,0,1,20-2.82c6.11-.16,12.58.65,16.7,6.16,1.27,1.71,1.53,4.33,1.83,6.59.31,2.42-.4,5.05.23,7.34,4.76,17.34,9.63,34.8,20.27,49.58,6,8.27,13.68,15.26,20.61,22.83l1.17.85,6.72,4.19,1.28.84,4.62,2.2,1.38.78a.65.65,0,0,0,.69.2l1.3.77,4,1.16,2,.83,1.63.26,1.36.73,6,1.17Z" transform="translate(-8.87 -7.55)"/><path class="cls-8" d="M238.25,547.52l3.09-2.82-20-11.86-12.91-10.21c8-7.55,17.17-11.92,26.24-16.33.87-.42,2.47.26,3.55.78,7.47,3.6,15,7.12,22.24,11.08,1.64.9,2.91,3.3,3.45,5.26,5.69,20.68,18.06,36.06,36.49,46.78,35.83,20.84,77.23,14,103.1-4.43,14.65-10.44,23.69-24.63,25.7-42.73.44-3.89,1.87-6.06,5.51-7a1.19,1.19,0,0,0,.43-.23c8.07-6.9,15.22-4,21.7,2.36,8.08,7.9,15.87,16.08,23.78,24.14,1.12,2.33,2.24,4.65,3.35,7-8,2.69-16.12,5.26-24.08,8.16a11,11,0,0,0-4.48,3.73c-26.57,34.94-62,57.88-101.7,74.94-3.17,1.36-6.59,2.16-10.19,3.32v7.8c8.18,2.32,14.92,6.55,19.67,13.67,7.86,11.78,8,26.4-1.19,37.15-5.42,6.32-12.66,11.1-19.23,16.4-1,.78-3.1,1.25-4.06.72-11.2-6.2-21.74-13-25.9-26.29-5.78-18.47,4.08-36.66,22.9-41.16v-7c-37.92-13.66-65.94-39.58-88.49-72.08C242.84,562.44,238,556,238.25,547.52Z" transform="translate(-8.87 -7.55)"/><path class="cls-8" d="M590,360.48l-13.34-7.59C584,368.33,593,382.31,596.28,399.7l-13.37-5c2.44,11.73,8.24,23.13,5.53,37-2.39-3.7-4.06-6.29-6.2-9.59-1.08,14.16,2.17,28.16-3.62,41l-1.71.07c-1.23-4.21-2.47-8.41-3.6-12.28-1.41,8.66-2.83,17.59-4.38,26.49-.12.69-1.19,1.21-1.83,1.82-16-15.53-34.9-25.46-56.91-28.58-12.62-1.79-25.47-2-37.45-2.79L453.7,423c4.81-.79,11.1-1.56,17.27-2.9,18.47-4,32.76-14.4,43.24-29.84,10.32-15.21,15.35-32.39,18-50.5,1.19-8,2.46-16.47,8.81-22.66a31.16,31.16,0,0,1,3.52-2.53c2.93-2.14,6.28-4,5.58-8.57-.07-.45,1.19-1.11,1.83-1.67,1.69,1.67,3.43,3.31,5.06,5,12.11,12.86,22.84,26.72,30.46,42.76,1.24,2.62,1.63,5.64,2.41,8.48Z" transform="translate(-8.87 -7.55)"/><path class="cls-8" d="M272.42,520c24.54,3.52,44.09-6.7,61.6-22.29,2.39-2.12,4-2.55,6.64-.19,22.68,20,48.63,28.77,78.85,22.38.81-.17,1.64-.27,2.46-.37a10.68,10.68,0,0,1,1.48.13c-2.18,13.56-8,25.11-18,34.42-29,27-90.77,32.39-122.69-9.09-5.3-6.88-8-15.76-11.9-23.71Z" transform="translate(-8.87 -7.55)"/><path class="cls-8" d="M153.15,442.45l-6.54-40.17-.45-.08L144,422.8c-4.24-21.36-.4-42.35,2.46-63.84l-9.88,7.53c0-11.1,3.68-20.55,7.44-30l6-9.24c1.07,5.51,1.88,10.13,2.88,14.72,3.52,16.18,8.69,31.67,17.54,45.89C184,409.68,204,419.9,229,421.44a23.41,23.41,0,0,0,8.74-.76c-3.49,4.31-7.24,8.45-10.4,13s-5.61,9.31-8.21,13.7l-50.64,3.73c-1.7-4.48-3.83-10.09-6-15.71l-1.7.11c0,3.09.07,6.19,0,9.29a62.22,62.22,0,0,1-.64,7.46c-.12.76-1,1.4-1.57,2.1-.62-.6-1.54-1.09-1.82-1.82C155.47,449.21,154.34,445.82,153.15,442.45Z" transform="translate(-8.87 -7.55)"/><path class="cls-8" d="M247.25,286.56c-3.51,4.74-6,9.79-10,13.18a92.12,92.12,0,0,1-60.32,22.64c-4.54.05-5.83,2-6.07,5.73-.48,7.45-.86,14.91-1.35,23.41-3.61-11.68-5.29-22.62-4-34,1.81-16,13.3-23.49,26.29-29.16,16.76-7.32,34.26-7.26,51.9-3.61A24.92,24.92,0,0,1,247.25,286.56Z" transform="translate(-8.87 -7.55)"/><path class="cls-8" d="M542.67,506.36l-4.15-1.88a33.37,33.37,0,0,0-2.6-4.06c-13.18-15.53-30.22-24.37-49.91-28.55l-3-.48-4.61-.22-.19-.17-3.77-1.76v-14c22.11-1,43.78,1.57,64.48,10.42l4,1.94c4.37,2.62,8.7,5.33,13.14,7.84,4,2.23,4.15,5.3,1.92,8.63C553,491.55,547.82,498.93,542.67,506.36Z" transform="translate(-8.87 -7.55)"/><path class="cls-8" d="M385.79,368.51c-1.88-7.14-3.72-14.27-5.65-21.38-.73-2.71-1.15-5.69-2.59-8-3.06-4.9-2.06-9.31.05-14.15,9.31-21.41,27.29-31.85,48.34-38.24,5.63-1.71,11.63-2.22,19-3.58-1.81,4.58-2.43,8.36-4.52,11-4.64,5.77-9.26,12-15.24,16.12-9.68,6.62-20.37,11.78-30.78,17.27-3.33,1.76-5.47,3.56-5.75,7.69C388,346.19,386.81,357.17,385.79,368.51Z" transform="translate(-8.87 -7.55)"/><path class="cls-8" d="M518,527.55c-7.46,5-14.9,10-22.38,14.9-1.64,1.08-3.42,1.95-5.41,3.08-1.18-1.62-2.42-3.31-3.66-5l-18.28-21.15-5.83-4.7L451.1,507c3.88-4.42,7.39-8.72,11.32-12.62.86-.86,3.33-.74,4.81-.27C487.29,500.45,504.46,511.25,518,527.55Z" transform="translate(-8.87 -7.55)"/><path class="cls-8" d="M537.15,513.5c-3.83,3.32-7.57,6.73-11.54,9.87-.7.55-2.31-.06-3.5-.13L510.22,511.4l-1.82-1.7c-11.45-10.63-25.32-16.79-40-21.55,1.41-4.22,2.8-8.36,4.33-13,13.43,1.48,26,5.92,37.89,12.24,9.39,5,17,12.12,23.52,20.46A38.16,38.16,0,0,1,537.15,513.5Z" transform="translate(-8.87 -7.55)"/><path class="cls-8" d="M172.11,487.34c5.7-3,10.89-8.47,17.83-.52.1-.57.21-1.14.32-1.71-.5-1.41-1-2.82-1.83-5.18l27.77-6.66c2,4.89,3.7,9,5.22,12.62l-39.73,15Z" transform="translate(-8.87 -7.55)"/><path class="cls-8" d="M172.68,458.38c15-3.83,29.5-4.3,44.21-3.79V468c-10.84,2.19-21.36,4.43-31.94,6.32-1.26.23-3.39-1.08-4.2-2.29C178,467.88,175.65,463.48,172.68,458.38Z" transform="translate(-8.87 -7.55)"/><path class="cls-8" d="M231.48,501.33l-32.08,17-12.33-10.41c4.39-2.61,8-5.2,11.92-7,6-2.75,12.36-4.81,18.44-7.43,4.22-1.82,7.44-1.49,9.94,2.73A45.11,45.11,0,0,0,231.48,501.33Z" transform="translate(-8.87 -7.55)"/><path class="cls-8" d="M422.81,492.73l32-1.66.76,2c-3.71,3.28-7.16,6.93-11.25,9.64-1.33.87-4.3-.76-6.52-1.24Z" transform="translate(-8.87 -7.55)"/><path class="cls-8" d="M524.47,304.41c-1.74-1.35-4.65-2.45-5-4.09-.83-3.88,2.7-6.75,7.32-6.68,3.33,0,6.21,1.23,6.08,5C532.69,303.6,528.66,303.31,524.47,304.41Z" transform="translate(-8.87 -7.55)"/><path class="cls-8" d="M157.62,305.5c-2.83-3-5.85-4.77-6.24-7-.61-3.44,2.65-4.44,5.72-4.26s6.4,1.26,5.86,5C162.68,301.17,160.08,302.75,157.62,305.5Z" transform="translate(-8.87 -7.55)"/><path class="cls-7" d="M422.81,492.73l15,8.72c0,.6-.07,1.21-.11,1.81L421,495c.1-.79.21-1.59.31-2.39Z" transform="translate(-8.87 -7.55)"/><path class="cls-4" d="M149.12,444.48l.47,2.15q1,5.76,2,11.51l-1.63.23a31.15,31.15,0,0,1-2.65-18.63l1.57,3.81A1.08,1.08,0,0,0,149.12,444.48Z" transform="translate(-8.87 -7.55)"/><path class="cls-6" d="M242,498.35l13.43-5.74.92,2.11L243,500.41Z" transform="translate(-8.87 -7.55)"/><path class="cls-6" d="M493.81,453.5c-3.78,0-7.57,0-11.36,0a6.79,6.79,0,0,1-3.36-.72H493.7Z" transform="translate(-8.87 -7.55)"/><path class="cls-6" d="M543,467.57l-4-1.94c.09-1.11.18-2.23.26-3.35l1.68-.5Z" transform="translate(-8.87 -7.55)"/><path class="cls-6" d="M462.42,514.69l5.83,4.7C464.45,520.13,462.39,518.71,462.42,514.69Z" transform="translate(-8.87 -7.55)"/><path class="cls-6" d="M483.05,471.39l3,.48c.11.77.22,1.54.35,2.43a6.06,6.06,0,0,1-1.62,0c-1-.33-2-.79-3-1.21Z" transform="translate(-8.87 -7.55)"/><path class="cls-6" d="M421.34,492.64c-.1.8-.21,1.6-.31,2.39l-3-1.48Z" transform="translate(-8.87 -7.55)"/><path class="cls-6" d="M425,418.39l-2-.83Z" transform="translate(-8.87 -7.55)"/><path class="cls-6" d="M440.92,422.69l-2.06-.82Z" transform="translate(-8.87 -7.55)"/><path class="cls-6" d="M436,421.37l-2-.82Z" transform="translate(-8.87 -7.55)"/><path class="cls-6" d="M508.4,509.7l1.82,1.7Z" transform="translate(-8.87 -7.55)"/><path class="cls-6" d="M474.72,453.11c0-.12.09-.34.13-.35a1.36,1.36,0,0,1,.42.13c0,.12-.08.35-.13.35A1.36,1.36,0,0,1,474.72,453.11Z" transform="translate(-8.87 -7.55)"/><path class="cls-6" d="M518,275.44l-1.09-.91Z" transform="translate(-8.87 -7.55)"/><path class="cls-6" d="M403,407.42l-1.17-.85Z" transform="translate(-8.87 -7.55)"/><path class="cls-6" d="M411,412.45l-1.28-.84Z" transform="translate(-8.87 -7.55)"/><path class="cls-6" d="M417,415.43l-1.38-.78Z" transform="translate(-8.87 -7.55)"/><path class="cls-6" d="M419,416.4l-1.3-.77Z" transform="translate(-8.87 -7.55)"/><path class="cls-6" d="M428,419.38l-1.36-.73Z" transform="translate(-8.87 -7.55)"/><path class="cls-6" d="M478.44,471.17l-.49.68c.1-.28.2-.56.29-.84Z" transform="translate(-8.87 -7.55)"/><path class="cls-6" d="M255.89,492.52l.33-1.06Z" transform="translate(-8.87 -7.55)"/><polygon class="cls-6" points="535.85 555.39 535.54 555.56 535.56 555.19 535.85 555.39"/><path class="cls-4" d="M217.88,154.81l5.14-6.27v0l12.82-2.62c-.51-.93-1.16-2.13-1.81-3.34l7-5.06,0,0c4.65,1.62,7.81-2.42,11.89-3.15,6.22-1.11,12.35-2.79,18.47-4.41,4.46-1.19,8.8-2.91,13.29-4,5.71-1.32,11.55-2.07,17.29-3.32,3.54-.76,6.93-2.48,10.49-2.89,8.66-1,17.38-1.74,26.09-2.12a65.82,65.82,0,0,1,14.51.88c8.95,1.64,17.78,3.95,26.69,5.84,6.71,1.42,13.44,2.8,20.21,3.87,4.63.73,9.35.89,14,1.31,1.67,1,3.22,2.54,5,3,6.06,1.64,12.22,2.91,18.34,4.31l.51-2.28-23.77-5.17a23.41,23.41,0,0,0-4-1.74c-10.15-2.33-20.26-4.88-30.49-6.75-14.11-2.58-27.94-7.24-42.57-6.42l-2.14-2.71,17.11-6.3,3,1.07c2.09,5,5.67,2.89,9,1.87l1,.05,2.06.17,1.91.89,1.77,2.57,1.26-1.69,1,0,.57,2.6.77.06c.23-.85.47-1.7.7-2.55l1.93.05c.09.7.19,1.39.27,2l2.71-1.15c9.71,2,19.47,3.77,29.09,6.08,4,1,7.69,2.84,11.93,1.89l0,0,3.94,2.95,2.91.1,1.06.16.78,4.81,2-2.34,8.11,6.45c3-3.82,7.3-1.37,9.27.45,4.17,3.85,9.1,1.37,13.28,3.14,2.57,1.09,5.07,2.32,8.12,3.72-.11.17.49-.69.41-.58l9.64,3.34c.07,1,.16,2.46.3,4.56l-7.4,1.11-.37.88c5.61,2.23,11.25,4.39,16.83,6.71,10.84,4.51,21.67,9.06,32.44,13.73,1.36.6,2.35,2.06,3.52,3.11-17.7-7.05-35.17-14.79-53.17-21-24.73-8.51-50.58-12.47-76.4-16.21-22.39-3.25-44.8-6.38-67.54-5.63C292,130.21,256.52,137.26,223,153,221.37,153.72,219.59,154.2,217.88,154.81Zm236.81-13c-5.95-5-14.16-6.65-15.18-4.18Zm3,0v.4h1.55v-.4Z" transform="translate(-8.87 -7.55)"/><path class="cls-4" d="M528.88,173.6l8.17,4.88Z" transform="translate(-8.87 -7.55)"/><path class="cls-4" d="M540.76,180.73l4.22,2.79Z" transform="translate(-8.87 -7.55)"/><path class="cls-4" d="M537.46,178.58l2.21,1.41Z" transform="translate(-8.87 -7.55)"/><path class="cls-4" d="M545,183.52l1.91,1.24Z" transform="translate(-8.87 -7.55)"/><path class="cls-4" d="M546.78,184.7c.59.43,1.19.87,1.78,1.32Z" transform="translate(-8.87 -7.55)"/><path class="cls-4" d="M526.88,172.58c.69.36,1.38.72,2.08,1.07C528.26,173.3,527.57,172.94,526.88,172.58Z" transform="translate(-8.87 -7.55)"/><path class="cls-4" d="M549.68,186.69l1.27,1.05Z" transform="translate(-8.87 -7.55)"/><path class="cls-4" d="M525.73,171.64l1.23,1Z" transform="translate(-8.87 -7.55)"/><path class="cls-4" d="M539.63,179.92l1.2.88Z" transform="translate(-8.87 -7.55)"/><path class="cls-4" d="M548.61,185.94l1.19.91Z" transform="translate(-8.87 -7.55)"/><path class="cls-5" d="M552,104.37c0,1.38,0,2.75,0,4.13h0l-1,1c-4.92-2.7-9.6-6.06-14.81-8C523.23,96.79,510,92.74,497,88.31c-5.79-2-12.6-2.84-17-6.55-5.38-4.56-10.16-7.15-17-5.26h0l-5-2h0c-.77-.68-1.5-1.41-2.31-2-2-1.52-4-3-6.06-4.46-.77-.55-1.76-1.6-2.39-1.44-4.36,1.11-6.72-3.1-10.45-3.78-1.78-.33-3.26-2.38-5.34-4-3.74,1.49-5.64.33-8.81-6.76l-1.29,3.33-6.29-7.26c-2.56,1.65-5.32,2.41-7.57-1.7-.66-1.21-3.17-1.48-4.88-2-3.93-1.27-5-4.14-4.57-7.9,1.65.56,3.32,1.09,5,1.69,2,.75,4,1.56,6,2.35h0c.73,1.06,1.24,2.44,2.23,3.09a43.14,43.14,0,0,0,6.11,3.08c6.54,3,13.1,5.89,19.65,8.83h0l3,2h0l3,1-.05,0,1,1h0l3,1-.05,0,1,1h0l14,6,0,0,2.18,1c5.57,2.31,11.07,4.8,16.72,6.88,5.27,1.93,10.7,3.43,16.06,5.11l3.05,1h0l13,4h0l2,1h0l3,1h0l3,1,13.13,5c.29-.52.58-1.05.86-1.58-2.32-1.42-4.48-3.34-7-4.19C514.15,83.05,500.12,78.68,486.2,74c-2-.67-3.57-2.51-5.85-4.17-3.67,1.82-11.57-1.27-14.75-5.19a15.59,15.59,0,0,0-9.44-5.33c-4-.45-5.53-4.34-9.15-4.64-.19,0-.33-1.19-.49-1.18-10.07.11-14.4-8.25-20.57-13.88a41,41,0,0,1,4,1.28c3.39,1.48,6.73,3.06,10.09,4.6h0l3,1h0c.33.33.67.66,1,1h0l4,2h0l1,1h0l2.37,1,.47,0,3.16,2h0l2.15,1c1.08,4.38,5.34,2,7.94,3.59,4.75,2.9,10.4,4.32,15.68,6.36l3.24,1,0,0,5.35,2,.44,0,6.58,2,.38,0,3.38,1a7.85,7.85,0,0,1,.84,0l3,1,0,0,16.31,5a1.41,1.41,0,0,1,.5,0l3.21,1v0l14.28,6a2.73,2.73,0,0,1,.64,0L542,85.51l0,0c.32,2,2.48,4,0,6l-5.23,1.33Zm-94-34.9-.41.47.47-.42.2-.46Zm37.81,16.18.44.93,2.39-1-.36-.84Z" transform="translate(-8.87 -7.55)"/><path class="cls-7" d="M254.05,97.44c-.87-.12-2.31-.62-2.53-.3-2.73,4-6.76,3.52-10.73,3.35,13-8,25.49-16.78,41.26-19.24,12.7-2,25.11-5.83,37.79-8,10.7-1.86,21.71-2,32.4-3.94,8.8-1.59,16.54,1.56,24.67,3.29l.07,0,20.95,7.31,8.62,3c15.58,5.42,31.13,10.87,46.76,16.12,1,.33,2.46-1,3.71-1.49,23.52,8.47,47.25,16.4,70.44,25.68,8.77,3.5,16.3,10.09,24.36,15.34.58.38.81,1.31,1.2,2-4.92-2.31-10.19-3.48-15-6.56-8.34-5.35-15.8-12.53-26.43-14-4.39-.59-8.54-3-12.78-4.68-4.91-1.89-9.81-3.81-15-5.83l-1.47,3.46c-.59-.29-1.65-.57-1.65-.86,0-4.89-3.53-4.33-6.69-4.57a11.05,11.05,0,0,1-5.26-1.78c-3.3-.36-7.21,3.09-9.63-2.55-.27-.64-4,.19-6.12.34-7.92-2.78-15.66-6.41-23.81-8.07a124.51,124.51,0,0,1-16.26-4.86c-1.33-1.15-2.48-2.78-4-3.37C405,85.7,401,84.7,397,83.5l-2-.26-6.08-2.67c-8.52-2.78-17-5.6-25.58-8.31a26.3,26.3,0,0,0-4.37-.63l-2,.05-1.91.13-5.15.77-2.86-.75c-2.26.15-4.55.17-6.8.47-9.11,1.23-18.3,2.13-27.3,4-10.4,2.1-20.63,5-30.92,7.62-4.74,1.2-9.51,2.31-14.19,3.74-5.46,1.66-10.43,4.16-13.06,9.72Z" transform="translate(-8.87 -7.55)"/><path class="cls-5" d="M457,97.47c-1.25.53-2.75,1.82-3.71,1.49-15.63-5.25-31.18-10.7-46.76-16.12l-8.62-3c-.47-.75-.81-2-1.45-2.17-6.47-1.81-13-3.44-19.5-5.13l-.07,0c1-2,2.1-4.09,3.16-6.13,4.73,1.9,9.5,3.7,14.18,5.74,11.28,4.92,22.57,9.83,33.73,15,2.56,1.19,3.65,1.23,4-1.69l24,11,1,1Z" transform="translate(-8.87 -7.55)"/><path class="cls-7" d="M251,81.44,245,80.52l13-10.94,0,0,3-2.17.61-.81,1.34,0,0,0,3-3h0l2-1,0,0,4-3h0l4-2v0c9.55-1.49,19.11-3,28.67-4.43,2.43-.36,4.9-.44,7.35-.65l-.06,1-2.94,1.17c-3.27.33-6.62.31-9.78,1.06-5.82,1.38-11.52,3.21-17.27,4.86-4.54.93-8.23,2.9-10.83,7.09-1.18,1.91-3.67,3.08-5.68,4.41C260.69,75.23,255.82,78.31,251,81.44Z" transform="translate(-8.87 -7.55)"/><path class="cls-5" d="M377,48.51l23,12c2.24,5.53,7.58,4.82,12,6h0l2.92,5.06c-2.47-.35-5.1-.27-7.4-1.11-7.73-2.81-15.43-5.75-22.95-9.07-2.05-.91-3.42-3.34-4.91-5.3L372,48.44Z" transform="translate(-8.87 -7.55)"/><path class="cls-5" d="M312,53.46l.06-1c3.53-.37,7.15-.38,10.57-1.22,3-.74,3-1.08,3.63,1.46l11.8-4.17c2.14,3.35,4.18.53,6.26-.1l.34,0a24.3,24.3,0,0,0,3.57.49c5.94-.07,11.87-.22,17.81-.34-.79,1.28-1.38,3.46-2.39,3.66a70.14,70.14,0,0,1-11.59,1.26c-4.09.16-8.15,1.62-12.29-1.37-1.33-1-5.11,1.48-7.77,2.37h0l-.49-1.81c-.25.92-.38,1.36-.5,1.8v0l-19.68,3.61C311.64,55.88,311.82,54.67,312,53.46Zm6.66,1.17c-.13-.26-.2-.64-.38-.71s-.51.14-.77.23l.48.94Z" transform="translate(-8.87 -7.55)"/><path class="cls-7" d="M414.93,71.54,412,66.48c4.88,2,9.78,4,14.62,6,14.54,6.28,29.05,12.62,43.48,19.92-1.71,0-3.63.51-5.1-.08-10.38-4.13-20.69-8.45-31-12.8-4.25-1.79-8.38-3.87-12.62-5.67-.6-.25-1.55.34-2.33.54L416,71.6Z" transform="translate(-8.87 -7.55)"/><path class="cls-7" d="M328,40.51h2c.32,0,.64,0,1-.07h4.83l.2,1.45-14,1.7-1.89,0c-10.91.31-21.83.54-32.74,1-1.72.07-3.35,1.4-5.1,1.72a32,32,0,0,1-5.37.09l4.2-3.9h0c.33-.35.67-.69,1-1l.85.13a15.35,15.35,0,0,0,3.68.79C300.38,41.84,314.19,41.16,328,40.51Z" transform="translate(-8.87 -7.55)"/><path class="cls-7" d="M522,110.48l-13.09-3.82c-8.27-2.34-16.75-4.12-24.69-7.28-3.62-1.43-6.72-4-10.95-3.89-.41,0-.85-1.12-2-2.76,2.39.17,3.81,0,5,.4q21.4,7.38,42.73,15C520.15,108.52,521,109.67,522,110.48Z" transform="translate(-8.87 -7.55)"/><path class="cls-7" d="M354.91,35.49c-16.08-1-32.16-1.9-48.22-3.07-3.64-.26-7.2-1.47-10.79-2.24l21,.18C328,31,339,31.6,350.06,32.43c1.65.13,3.22,1.4,4.83,2.14A5.66,5.66,0,0,1,354.91,35.49Z" transform="translate(-8.87 -7.55)"/><path class="cls-5" d="M282,60.55c5.75-1.65,11.45-3.48,17.27-4.86,3.16-.75,6.51-.73,9.78-1.06-2.25,4.32-8.73,7.13-12.93,5.39l-1.58,2.32Z" transform="translate(-8.87 -7.55)"/><path class="cls-7" d="M440,45.48c-3.36-1.54-6.7-3.12-10.09-4.6a41,41,0,0,0-4-1.28c-4.95-3-9.88-6-14.86-8.93a20.82,20.82,0,0,0-3-1.21l-6-6c10.54,5.71,21.12,11.36,31.6,17.2C435.93,41.93,437.89,43.85,440,45.48Z" transform="translate(-8.87 -7.55)"/><path class="cls-7" d="M366,48.58c-5.94.12-11.87.27-17.81.34a24.3,24.3,0,0,1-3.57-.49c9-2.68,18.22-3.91,27.59-2.22,1.67.31,3.17,1.51,4.76,2.3l-5-.07Z" transform="translate(-8.87 -7.55)"/><path class="cls-7" d="M437,55.48c-6.55-2.94-13.11-5.86-19.65-8.83a43.14,43.14,0,0,1-6.11-3.08c-1-.65-1.5-2-2.23-3.09Z" transform="translate(-8.87 -7.55)"/><path class="cls-7" d="M420,58.48c-4.82-2-9.79-3.68-14.43-6-3.73-1.9-7.05-4.61-10.56-7,6.72,3.25,13.47,6.45,20.15,9.78A46.19,46.19,0,0,1,420,58.48Z" transform="translate(-8.87 -7.55)"/><path class="cls-7" d="M356,37.6c.07-.6.14-1.2.22-1.81l18.12-2.56.29,2.13C368.74,38,362.28,37.27,356,37.6Z" transform="translate(-8.87 -7.55)"/><path class="cls-7" d="M391,43.48h-5l-7.11-4.25.81-1.41C384.25,37.92,387.86,40.19,391,43.48Z" transform="translate(-8.87 -7.55)"/><path class="cls-7" d="M409,40.48c-2-.79-4-1.6-6-2.35-1.64-.6-3.31-1.13-5-1.69-.78-1.19-1.55-2.39-2.32-3.58.14-.19.29-.38.44-.56Z" transform="translate(-8.87 -7.55)"/><path class="cls-7" d="M412,66.48c-4.43-1.15-9.77-.44-12-6Z" transform="translate(-8.87 -7.55)"/><path class="cls-7" d="M462,67.49l-14-6Z" transform="translate(-8.87 -7.55)"/><path class="cls-7" d="M534,116.49l-12-6Z" transform="translate(-8.87 -7.55)"/><path class="cls-7" d="M513,85.48l-13-4Z" transform="translate(-8.87 -7.55)"/><path class="cls-7" d="M432.42,64.47l-10.41-5Z" transform="translate(-8.87 -7.55)"/><path class="cls-7" d="M452.09,73.5l-7.08-3Z" transform="translate(-8.87 -7.55)"/><path class="cls-7" d="M344.32,48.45c-2.08.63-4.12,3.45-6.26.1Z" transform="translate(-8.87 -7.55)"/><path class="cls-5" d="M416,71.6l3.14,2.83Z" transform="translate(-8.87 -7.55)"/><path class="cls-7" d="M395,45.47l-4-2Z" transform="translate(-8.87 -7.55)"/><path class="cls-7" d="M437,66.49l-4.24-2Z" transform="translate(-8.87 -7.55)"/><path class="cls-7" d="M440,57.48l-3-2Z" transform="translate(-8.87 -7.55)"/><path class="cls-7" d="M395.72,32.86l-3.39-1.3.46-1.08,3.37,1.82C396,32.48,395.86,32.67,395.72,32.86Z" transform="translate(-8.87 -7.55)"/><path class="cls-5" d="M414.73,50.9l.84.36c-.12.28-.18.71-.38.8s-.55-.2-.83-.32Z" transform="translate(-8.87 -7.55)"/><path class="cls-7" d="M388.87,29.56c.05-.43.09-.86.14-1.29l1.75,1.39Z" transform="translate(-8.87 -7.55)"/><path class="cls-7" d="M441,68.48l-3-1Z" transform="translate(-8.87 -7.55)"/><path class="cls-7" d="M447,60.49l-3-1Z" transform="translate(-8.87 -7.55)"/><path class="cls-7" d="M443,58.49l-3-1Z" transform="translate(-8.87 -7.55)"/><path class="cls-7" d="M521.06,88.5l-3-1Z" transform="translate(-8.87 -7.55)"/><path class="cls-7" d="M518,87.48l-3-1Z" transform="translate(-8.87 -7.55)"/><path class="cls-5" d="M510,110.55l-2.07.82c-.06-.23-.12-.46-.19-.68l2.16-.25Z" transform="translate(-8.87 -7.55)"/><path class="cls-7" d="M500,81.48l-3.05-1Z" transform="translate(-8.87 -7.55)"/><path class="cls-7" d="M515,86.48l-2-1Z" transform="translate(-8.87 -7.55)"/><path class="cls-5" d="M429.36,71.23c.11,0,.26,0,.3,0a1,1,0,0,1,.09.36l-.52-.06Z" transform="translate(-8.87 -7.55)"/><path class="cls-7" d="M445,70.48l-2.37-1Z" transform="translate(-8.87 -7.55)"/><path class="cls-7" d="M422,59.49l-2-1Z" transform="translate(-8.87 -7.55)"/><path class="cls-7" d="M464.18,68.49l-2.18-1Z" transform="translate(-8.87 -7.55)"/><path class="cls-5" d="M332,54.5h-1v0h1Z" transform="translate(-8.87 -7.55)"/><path class="cls-7" d="M444,59.48l-1-1Z" transform="translate(-8.87 -7.55)"/><path class="cls-7" d="M457,97.49l-1-1Z" transform="translate(-8.87 -7.55)"/><path class="cls-5" d="M470,87.49l-.22.42c.07-.14.15-.27.23-.41Z" transform="translate(-8.87 -7.55)"/><path class="cls-5" d="M386,45.5l-.23.42.23-.42Z" transform="translate(-8.87 -7.55)"/><path class="cls-7" d="M438,67.49l-1-1Z" transform="translate(-8.87 -7.55)"/><path class="cls-7" d="M448,61.48l-1-1Z" transform="translate(-8.87 -7.55)"/><path class="cls-7" d="M442.47,69.48l-1.46-1Z" transform="translate(-8.87 -7.55)"/><path class="cls-7" d="M270.16,96.46c.78-.68,1.44-1.7,2.34-2,20.34-6.83,41.36-10.21,62.56-13.21,16.56-2.35,31.95.75,47.26,6.16a28.37,28.37,0,0,1,3.84,2l-6.1,1a2.5,2.5,0,0,0-.9-.14c-.72-2.14-1.71-3.71-4.2-1.84l-1.88,0c-2.05-4-5.57-3.5-9.09-3l-2.91-.11L358,83.51l-2.09-1h-.85c-.33.06-.66.11-1,.14-3.25.08-6.53-.1-9.74.3Q324,85.54,303.68,88.44c-2.28.33-4.46,1.38-6.68,2.09l-5,1a7.93,7.93,0,0,0-2.58-.21C283,93,276.58,94.73,270.16,96.46Z" transform="translate(-8.87 -7.55)"/><path class="cls-5" d="M297,90.53c2.22-.71,4.4-1.76,6.68-2.09Q324,85.55,344.33,83c3.21-.4,6.49-.22,9.74-.3-.47,5.17-4.87,4.73-8.21,5.56a85.1,85.1,0,0,1-9,1.25L335.61,88l-37.53,5.42Z" transform="translate(-8.87 -7.55)"/><path class="cls-7" d="M365,108.51l-1-.05-9-1.87-3-1.07c-1.89-.33-3.84-1.13-5.68-.93q-23.09,2.53-46.12,5.46c-2.46.31-4.8,1.58-7.2,2.4L279,114.79l-1,.73-1,.28c-3.8,1-7.59,2-11.4,2.86-2.7.65-5.42,1.21-8.13,1.82,9.1-3,18-6.91,27.37-8.78,18.16-3.64,36.47-6.91,54.89-8.76,8.82-.88,18,1.64,27,3,4,.61,7.78,2.25,11.66,3.43L377,110.65l-1.93-.05-2-.11-1,0-3-.88-1.91-.89Z" transform="translate(-8.87 -7.55)"/><path class="cls-7" d="M438,116.4c-5.64-1.6-11.28-3.18-16.91-4.81-4.1-1.2-8.18-2.47-12.27-3.7-2.2-.66-4.41-1.3-7.76-2.28,1.89-1,2.79-1.85,3.41-1.68,11.3,3.08,22.57,6.28,33.83,9.49.42.12.71.67,1,1Z" transform="translate(-8.87 -7.55)"/><path class="cls-5" d="M270.16,96.46c6.42-1.73,12.82-3.49,19.26-5.15a7.93,7.93,0,0,1,2.58.21c.68,4.63-4,4-5.77,4.49-2.88.74-6.72,1.13-8.57,2.54-3.6,2.74-7.39.23-10.65,2,.36-1.35.71-2.69,1.07-4Z" transform="translate(-8.87 -7.55)"/><path class="cls-7" d="M421,119.49c-4.24,1-8-.93-11.93-1.89-9.62-2.31-19.38-4.08-29.09-6.08l-1.34-2.11Z" transform="translate(-8.87 -7.55)"/><path class="cls-7" d="M390.84,90.42,423,99.48l-4.94,0h0l-2,.08a41.76,41.76,0,0,0-6.12-2.85c-6.25-1.76-12.58-3.26-18.88-4.87C391,91.34,390.91,90.88,390.84,90.42Z" transform="translate(-8.87 -7.55)"/><path class="cls-7" d="M533,161.48c-2.75-.76-5.74-1.07-8.18-2.39-4.77-2.57-9.24-5.7-13.83-8.6l14.9,5.09,0,0Z" transform="translate(-8.87 -7.55)"/><path class="cls-7" d="M268.08,96.48c-.36,1.34-.71,2.68-1.07,4l-1.91.87-1.87-1.66c-.44.9-.87,1.81-1.31,2.71l-2.85.22L249,104.49Z" transform="translate(-8.87 -7.55)"/><path class="cls-5" d="M390.84,90.42c.07.46.13.92.19,1.38.3,1.17.6,2.33.91,3.5l-2,2-4.1-1.47L389,92.79c-3.25.22-6.76,1.45-8.93-2.37l6.1-1Z" transform="translate(-8.87 -7.55)"/><path class="cls-7" d="M456,120.46q-.5,0-1,0l-2,0-1-.06-5-1-2,0-5.3-5,16.22,6Z" transform="translate(-8.87 -7.55)"/><path class="cls-5" d="M447,119.38l5,1-1.68,4.9-5.55-1.24C445.69,122.15,446.34,120.77,447,119.38Z" transform="translate(-8.87 -7.55)"/><path class="cls-7" d="M241,127.48c-3.73,2.33-7.38,4.78-11.22,6.9-1,.56-2.59.07-3.91.07Z" transform="translate(-8.87 -7.55)"/><path class="cls-5" d="M439.73,114.43l5.3,5c-2.21,1.06-4.74,4.15-6-.91l.23-.41-.23.41c-.34-.7-.68-1.4-1-2.1l1.35-2Z" transform="translate(-8.87 -7.55)"/><path class="cls-5" d="M364,85.36c3.52-.46,7-.92,9.09,3C369.15,90.09,365.79,90.05,364,85.36Z" transform="translate(-8.87 -7.55)"/><path class="cls-7" d="M425,122.46,421,119.51l15,4.3-7.11-1.09-1.06-.16Z" transform="translate(-8.87 -7.55)"/><path class="cls-7" d="M472,115.58l-4.28-3.16,9.64,3-3.45.22Z" transform="translate(-8.87 -7.55)"/><path class="cls-7" d="M248,124.12l-7,3.36Z" transform="translate(-8.87 -7.55)"/><path class="cls-7" d="M509,149.48l-6.16-3Z" transform="translate(-8.87 -7.55)"/><path class="cls-5" d="M375,88.44c2.49-1.87,3.48-.3,4.2,1.84Z" transform="translate(-8.87 -7.55)"/><path class="cls-5" d="M261.92,102.43c.44-.9.87-1.81,1.31-2.71l1.87,1.66Z" transform="translate(-8.87 -7.55)"/><path class="cls-5" d="M378.62,109.41l1.34,2.11-2.71,1.15c-.08-.63-.18-1.32-.27-2l1.51-1.25Z" transform="translate(-8.87 -7.55)"/><path class="cls-5" d="M358,83.51l3.08,1.74Z" transform="translate(-8.87 -7.55)"/><path class="cls-5" d="M454.86,126.9l-.89-2.31.62-.3,1.23,2.2Z" transform="translate(-8.87 -7.55)"/><path class="cls-5" d="M453,120.46l2,0c-.41.52-.82,1.05-1.24,1.57Z" transform="translate(-8.87 -7.55)"/><path class="cls-7" d="M502.28,146.49l-3.27-1Z" transform="translate(-8.87 -7.55)"/><path class="cls-5" d="M416,99.52l2-.08Z" transform="translate(-8.87 -7.55)"/><path class="cls-7" d="M511,150.47l-2-1Z" transform="translate(-8.87 -7.55)"/><path class="cls-7" d="M499,145.48l-2-1.4Z" transform="translate(-8.87 -7.55)"/><path class="cls-5" d="M355.06,82.54h0Z" transform="translate(-8.87 -7.55)"/><path class="cls-7" d="M360,22.41l17.1,2.39L377,26c-8.56-.62-17.13-1.16-25.68-1.88-12-1-24-2.32-36-3.19-4.07-.3-8.22.34-12.33.55l-4-.16-9-.77,0-.05,2.84-1.9c14.19.31,28.39.35,42.56,1C343.59,20,351.76,21.44,360,22.41Z" transform="translate(-8.87 -7.55)"/><path class="cls-4" d="M360,22.41c-8.19-1-16.36-2.41-24.57-2.8-14.17-.68-28.37-.72-42.56-1,3.76-1,7.52-2.11,11.31-3.09,2.64-.68,5.31-1.22,6.61-1.52,4.21.73,7.35,1.72,10.48,1.7,4.14,0,8.29-1.26,12.42-1.16,2,0,3.87,2.51,6,2.84,6.11,1,12.32,1.31,18.46,2.17C358.81,19.62,359.32,21.4,360,22.41Z" transform="translate(-8.87 -7.55)"/><path class="cls-4" d="M328,40.51c-13.82.65-27.63,1.33-41.45,1.91a15.35,15.35,0,0,1-3.68-.79c-.21-4.92,2.62-6.31,7.26-6l-.22,2.12c2.58,0,5.12.12,7.64,0,6-.34,11.83-.76,17.8,1,3.18.93,6.9-.07,10.37.07C326.51,38.79,327.25,39.9,328,40.51Z" transform="translate(-8.87 -7.55)"/><path class="cls-4" d="M299.06,21.3l4,.16c-.31,6.59.12,6.83,8,6.07,2.35-.22,5.75-1.84,5.9,2.83l-21-.18L292,26.84c1.36-1.12,2.7-2.26,4.08-3.35C297.05,22.72,298.07,22,299.06,21.3Z" transform="translate(-8.87 -7.55)"/><path class="cls-4" d="M281.05,42.53l-4.2,3.9c-.27-.45-.53-.9-.8-1.34Z" transform="translate(-8.87 -7.55)"/><path class="cls-4" d="M272,59.54l-4,3Z" transform="translate(-8.87 -7.55)"/><path class="cls-4" d="M266,63.54l-3,3Z" transform="translate(-8.87 -7.55)"/><path class="cls-4" d="M261.09,67.38l-3,2.17Z" transform="translate(-8.87 -7.55)"/><path class="cls-4" d="M276,57.52l-4,2Z" transform="translate(-8.87 -7.55)"/><path class="cls-4" d="M308.73,23.93l-1.09.92a3.93,3.93,0,0,1-.53-1c0-.19.38-.66.42-.64A10.15,10.15,0,0,1,308.73,23.93Z" transform="translate(-8.87 -7.55)"/><path class="cls-4" d="M268,62.52l-2,1Z" transform="translate(-8.87 -7.55)"/><path class="cls-4" d="M254.39,68.23c.12,0,.34.08.34.13a1.39,1.39,0,0,1-.13.41c-.12,0-.34-.08-.34-.13A1.3,1.3,0,0,1,254.39,68.23Z" transform="translate(-8.87 -7.55)"/><path class="cls-4" d="M331,40.44c-.32,0-.64.06-1,.07l.45-1.32Z" transform="translate(-8.87 -7.55)"/><path class="cls-7" d="M290,20.52l-.45.42.41-.46Z" transform="translate(-8.87 -7.55)"/><path class="cls-4" d="M282,41.5c-.34.35-.68.69-1,1C281.35,42.19,281.69,41.85,282,41.5Z" transform="translate(-8.87 -7.55)"/><path class="cls-4" d="M263,66.52l-1.34,0Z" transform="translate(-8.87 -7.55)"/><path class="cls-4" d="M477.38,115.43l-9.64-3-.33,0L464,111.23l-3.5-1.46.18-1.38c2.84.41,5.82.38,8.49,1.29,11.22,3.82,22.36,7.9,33.5,12a13,13,0,0,1,2.95,2.16l-2.56.84L491,120.46l0,0-3.05-1,.05,0-6-2h0l-4.2-2Z" transform="translate(-8.87 -7.55)"/><path class="cls-4" d="M533,161.48,526,155.54l14,2.22-2.17,2.48,7.2,6.22-.29.3L533,161.46Z" transform="translate(-8.87 -7.55)"/><path class="cls-7" d="M542,155.47l15,11A20,20,0,0,1,542,155.47Z" transform="translate(-8.87 -7.55)"/><path class="cls-7" d="M423,99.48l18,4c-2,0-4.05.43-5.88,0C431,102.37,427,100.83,423,99.48Z" transform="translate(-8.87 -7.55)"/><path class="cls-7" d="M491,120.46l12.06,4.19C498.86,123.76,494.34,123.81,491,120.46Z" transform="translate(-8.87 -7.55)"/><path class="cls-4" d="M515.73,128.62l-8.15-2.78c.2-.57.4-1.13.61-1.7l8.12,3.15C516.12,127.73,515.92,128.17,515.73,128.62Z" transform="translate(-8.87 -7.55)"/><path class="cls-7" d="M558,167.48l4.17,3Z" transform="translate(-8.87 -7.55)"/><path class="cls-7" d="M482,117.48l6,2Z" transform="translate(-8.87 -7.55)"/><path class="cls-4" d="M494.93,135.24c.74.88,1.46,1.38,1.41,1.76s-.78.86-1.29,1.11c-.13.07-.84-.56-.85-.87A6.79,6.79,0,0,1,494.93,135.24Z" transform="translate(-8.87 -7.55)"/><path class="cls-7" d="M477.8,115.43l4.2,2Z" transform="translate(-8.87 -7.55)"/><path class="cls-4" d="M490.82,135.53l-2.44-.62.22-.87,2.56.56Z" transform="translate(-8.87 -7.55)"/><path class="cls-7" d="M540,153.5c.67.66,1.34,1.32,2,2l-2.39,1Z" transform="translate(-8.87 -7.55)"/><path class="cls-4" d="M520.65,130c-.72.14-1.22.39-1.53.24s-.41-.68-.61-1.05c.29-.11.65-.39.84-.29A7.32,7.32,0,0,1,520.65,130Z" transform="translate(-8.87 -7.55)"/><path class="cls-7" d="M488,119.47l3.05,1Z" transform="translate(-8.87 -7.55)"/><path class="cls-7" d="M464,111.23l3.41,1.24Z" transform="translate(-8.87 -7.55)"/><path class="cls-4" d="M465.3,116.12l-.34.14c0-.18-.07-.35-.1-.53a1.11,1.11,0,0,1,.37.08C465.29,115.86,465.28,116,465.3,116.12Z" transform="translate(-8.87 -7.55)"/><path class="cls-4" d="M521.42,149.89l-.16-.57.37-.11Z" transform="translate(-8.87 -7.55)"/><path class="cls-7" d="M557,166.49l1,1Z" transform="translate(-8.87 -7.55)"/><path class="cls-7" d="M533,161.46l11.74,5.3,7.28,6.73c-5.93.78-9.21-3.58-13.1-6.75a19.45,19.45,0,0,0-1.94-1.25l0,0Z" transform="translate(-8.87 -7.55)"/><path class="cls-7" d="M553,174.47q2,1.51,4,3Q555,176,553,174.47Z" transform="translate(-8.87 -7.55)"/><path class="cls-7" d="M558,178.47l2,1Z" transform="translate(-8.87 -7.55)"/><path class="cls-7" d="M537,165.49l-.21.41.23-.39Z" transform="translate(-8.87 -7.55)"/><path class="cls-7" d="M552,173.47l1,1Z" transform="translate(-8.87 -7.55)"/><path class="cls-7" d="M557,177.47l1,1Z" transform="translate(-8.87 -7.55)"/><path class="cls-4" d="M463,76.5c6.83-1.89,11.61.7,17,5.26,4.37,3.71,11.18,4.59,17,6.55,13.07,4.43,26.27,8.48,39.21,13.24,5.21,1.91,9.89,5.27,14.81,8l1,.94,2,5c-5-2.69-10-5.53-15.13-8-6.49-3.15-13.13-6-19.7-9l-24.16-8,0,0-2-1,0,0-9-3.12c-6.16-2.4-12.35-4.73-18.45-7.26C464.51,78.68,463.84,77.39,463,76.5Z" transform="translate(-8.87 -7.55)"/><path class="cls-7" d="M495,90.47l24.16,8c-7.9-2.21-15.81-4.41-23.69-6.67C495.21,91.75,495.16,90.94,495,90.47Z" transform="translate(-8.87 -7.55)"/><path class="cls-7" d="M484,86.37l9,3.12Z" transform="translate(-8.87 -7.55)"/><path class="cls-4" d="M458,74.5l5,2Z" transform="translate(-8.87 -7.55)"/><path class="cls-7" d="M493,89.47l2,1Z" transform="translate(-8.87 -7.55)"/><path class="cls-4" d="M518,105.5l1-.75.25.38-1.29.37Z" transform="translate(-8.87 -7.55)"/><path class="cls-5" d="M254.83,97.33c2.63-5.56,7.6-8.06,13.06-9.72,4.68-1.43,9.45-2.54,14.19-3.74,10.29-2.6,20.52-5.52,30.92-7.62,9-1.82,18.19-2.72,27.3-4,2.25-.3,4.54-.32,6.8-.47-1.05,1.45-2.11,2.9-3.6,4.93.09,0-.95-.66-1.53-.38-4.3,2.07-8.56,2-13.15.89-1.42-.36-3.41,2-5,1.88-6.65-.65-12.43,1.51-18.39,4-2.72,1.15-6.28.2-9.43.52a49.11,49.11,0,0,0-8.58,1.59,150.47,150.47,0,0,0-15,4.93c-4.85,2-9.41,4.63-14.17,6.83C257.25,97.5,256,97.26,254.83,97.33Z" transform="translate(-8.87 -7.55)"/><path class="cls-5" d="M397,83.5c4,1.2,8,2.2,11.92,3.68,1.54.59,2.69,2.22,4,3.37C406.11,91.63,400.77,89.33,397,83.5Z" transform="translate(-8.87 -7.55)"/><path class="cls-5" d="M388.94,80.57,395,83.24c-.22,1.23-.43,2.46-.73,4.2l-3-3.36-1,3-1.31,0Z" transform="translate(-8.87 -7.55)"/><path class="cls-5" d="M350,72.58l5.15-.77c.15,1.38.3,2.76.56,5.19Z" transform="translate(-8.87 -7.55)"/><path class="cls-5" d="M398.66,87.63l-.67.45-.49-1c.26-.09.58-.31.77-.23S398.53,87.37,398.66,87.63Z" transform="translate(-8.87 -7.55)"/><path class="cls-5" d="M357,71.68l2-.05Z" transform="translate(-8.87 -7.55)"/><path class="cls-7" d="M248,105.48l-2,1Z" transform="translate(-8.87 -7.55)"/><path class="cls-7" d="M249,104.47l-1,1Z" transform="translate(-8.87 -7.55)"/><path class="cls-2" d="M149.12,444.48a1.08,1.08,0,0,1-.19-.93,5.89,5.89,0,0,1,.51.61S149.23,444.37,149.12,444.48Z" transform="translate(-8.87 -7.55)"/><path class="cls-5" d="M414,19.49l14,6h0l4,2h0l3,2h0l2,1,0,0,3.39,2,.33,0,1.25,1,0,0,1,1h0l2.43,1,.29,0,5.27,3h0l5,3h0l4,2h0l2,1,0,0,3,2h0l2,0c7.24,5.89,16.09,7.8,24.79,10.1.14,0,.15.6.22.92.15.56.14,1.27.48,1.66A29.46,29.46,0,0,0,495,61.51l-.24.4.22-.42c4.87,1.07,9.74,2.09,14.59,3.24A39,39,0,0,1,514,66.38c-.09,3.37-1.55,4.16-4.86,3.28-6.34-1.68-12.81-2.88-19.63-4.38l1.14-4.2-4.83,2.48a55.54,55.54,0,0,1-6.34-2.19c-2.88-1.37-5.57-3.12-8.35-4.68s-5.84-3.35-8.83-4.89c-6.08-3.15-12.21-6.21-18.32-9.3h0l-13-7,0,0c-1-4.09-4-5.94-7.73-7.45-5-2-9.8-4.63-15.16-7.21Z" transform="translate(-8.87 -7.55)"/><path class="cls-7" d="M466,34.5c3.47,1.38,6.93,2.8,10.42,4.14,1.82.71,3.68,1.29,5.52,1.93l.05,0,26,7.94a4.57,4.57,0,0,0,.83.05l3.53,0a.64.64,0,0,0,.49,0l1.11-.05h0c0,1,.07,2,.11,2.94l-13-1c-5.82-2.1-11.52-4.79-17.51-6.14C477.89,43,473.46,40,468.91,37A35.72,35.72,0,0,1,466,34.5Z" transform="translate(-8.87 -7.55)"/><path class="cls-7" d="M452,26.51l14,8C459.62,34.85,456,30.31,452,26.51Z" transform="translate(-8.87 -7.55)"/><path class="cls-7" d="M456,41.48l-5-3Z" transform="translate(-8.87 -7.55)"/><path class="cls-7" d="M451,38.48l-5.27-3Q448.37,37,451,38.48Z" transform="translate(-8.87 -7.55)"/><path class="cls-7" d="M432,27.48l-4-2Z" transform="translate(-8.87 -7.55)"/><path class="cls-7" d="M440.42,32.47l-3.39-2Z" transform="translate(-8.87 -7.55)"/><path class="cls-7" d="M460,43.48l-4-2Z" transform="translate(-8.87 -7.55)"/><path class="cls-7" d="M465,46.48l-3-2Z" transform="translate(-8.87 -7.55)"/><path class="cls-7" d="M435,29.48l-3-2Z" transform="translate(-8.87 -7.55)"/><path class="cls-7" d="M450,25.5l2,1Z" transform="translate(-8.87 -7.55)"/><path class="cls-7" d="M437,30.47l-2-1Z" transform="translate(-8.87 -7.55)"/><path class="cls-7" d="M467,46.5l-2,0Z" transform="translate(-8.87 -7.55)"/><path class="cls-7" d="M462,44.49l-2-1Z" transform="translate(-8.87 -7.55)"/><path class="cls-7" d="M445.45,35.47l-2.43-1Z" transform="translate(-8.87 -7.55)"/><path class="cls-7" d="M443,34.48l-1-1Z" transform="translate(-8.87 -7.55)"/><path class="cls-7" d="M442,33.47l-1.25-1Z" transform="translate(-8.87 -7.55)"/><path class="cls-7" d="M482,29.47c1.93.48,3.87.94,5.8,1.44s4.1,1.1,6.14,1.66l.08,0,17,6.92,3,2,0,.06c-5.92-1.74-11.84-3.45-17.75-5.22-4.09-1.23-8.16-2.54-12.23-3.81l-2-.13C482,31.4,482,30.44,482,29.47Z" transform="translate(-8.87 -7.55)"/><path class="cls-4" d="M508,48.48l-26-7.94,6,0h0c3.64,1.48,7.24,3.1,11,4.3.67.21,1.89-1.32,2.67-1.9Z" transform="translate(-8.87 -7.55)"/><path class="cls-4" d="M511,39.47l-17-6.92C500,34,506.4,34.48,511,39.47Z" transform="translate(-8.87 -7.55)"/><path class="cls-4" d="M514.07,51.49c0-1-.07-2-.11-2.94l3.81.92,0,1.44Z" transform="translate(-8.87 -7.55)"/><path class="cls-4" d="M483,34.51l1.54,1.2-.32.33L483,34.49Z" transform="translate(-8.87 -7.55)"/><path class="cls-4" d="M512.35,48.57l-3.53,0Z" transform="translate(-8.87 -7.55)"/><path class="cls-4" d="M514,48.55l-1.11.05.78-1.27Z" transform="translate(-8.87 -7.55)"/><path class="cls-7" d="M514,41.47l1.36.41c-.1.13-.26.38-.27.38-.39-.23-.76-.48-1.14-.73Z" transform="translate(-8.87 -7.55)"/><path class="cls-4" d="M522.62,58.2l.14.35-.53.11a.92.92,0,0,1,.08-.38C522.36,58.21,522.51,58.23,522.62,58.2Z" transform="translate(-8.87 -7.55)"/><path class="cls-4" d="M488,40.5l.23-.42-.23.42Z" transform="translate(-8.87 -7.55)"/><path class="cls-5" d="M374.11,64.4l2.91.84c-1.61,1.43-3.2,2.87-3.77,3.38l-9.1-8.12c-1,2.87-1.63,4.53-2.44,6.77l-2.42-3.59-14,2.42c-1.27-2.36-5.25-2.93-9.43-.81-1.22.62-2.7.75-4.09,1.29-2.47.7-5.76,2.74-7.25,1.83-4-2.44-4.48,1-6.52,2.86-.09-1.21-.17-2.18-.22-2.74-5.95.81-11.78,1.37-17.49,2.47-3,.58-6.77-.34-8.78,3.51-.31.59-3.07-.23-4.69-.17s-3.4.39-5.51.66c0-.26-.19-1.3-.35-2.34,7.59-1.56,15.16-3.21,22.77-4.64,10.31-2,20.64-3.76,31-5.57,2.43-.43,4.89-.63,7.33-.94l.45.22-.43-.24c9.25-1.41,18.52-3.49,27.73.07,1.26.49,2.23,1.7,3.34,2.58.16.51.33,1,.49,1.52Z" transform="translate(-8.87 -7.55)"/><path class="cls-5" d="M375,70.5l.42.23L375,70.5Z" transform="translate(-8.87 -7.55)"/><path class="cls-5" d="M375,70.5l-.4-.23.4.23Z" transform="translate(-8.87 -7.55)"/><path class="cls-7" d="M413.94,129.56c-4.68-.42-9.4-.58-14-1.31-6.77-1.07-13.5-2.45-20.21-3.87-8.91-1.89-17.74-4.2-26.69-5.84a65.82,65.82,0,0,0-14.51-.88c-8.71.38-17.43,1.11-26.09,2.12-3.56.41-7,2.13-10.49,2.89-5.74,1.25-11.58,2-17.29,3.32-4.49,1.05-8.83,2.77-13.29,4-6.12,1.62-12.25,3.3-18.47,4.41-4.08.73-7.24,4.77-11.89,3.15,7-2.83,13.88-6.09,21.06-8.39,10.36-3.31,20.8-6.63,31.45-8.65,12.69-2.41,25.63-3.44,38.47-5.07l5-.87c14.63-.82,28.46,3.84,42.57,6.42,10.23,1.87,20.34,4.42,30.49,6.75a23.41,23.41,0,0,1,4,1.74Z" transform="translate(-8.87 -7.55)"/><path class="cls-5" d="M337,114.53l-5,.87a25.42,25.42,0,0,0-1.68-4.82c-.42-.72-2.3-1.5-2.63-1.21-5.93,5-12,1.58-18.09.68-1.06-.16-2.28,1.61-3.54,1.83-4,.7-8,1.11-12,1.54-.32,0-.71-.63-1.07-1,2.4-.82,4.74-2.09,7.2-2.4q23-3,46.12-5.46c1.84-.2,3.79.6,5.68.93l-17.11,6.3Z" transform="translate(-8.87 -7.55)"/><path class="cls-5" d="M278.06,115.52l1-.73Z" transform="translate(-8.87 -7.55)"/><path class="cls-4" d="M374.11,64.4l-.54,1.26c-.16-.5-.33-1-.49-1.52Z" transform="translate(-8.87 -7.55)"/><path class="cls-7" d="M520.31,76.48l-16.31-5Z" transform="translate(-8.87 -7.55)"/><path class="cls-7" d="M538.29,83.48l-14.28-6Z" transform="translate(-8.87 -7.55)"/><path class="cls-7" d="M496.37,69.48l-6.58-2Z" transform="translate(-8.87 -7.55)"/><path class="cls-7" d="M489.35,67.48l-5.35-2Z" transform="translate(-8.87 -7.55)"/><path class="cls-7" d="M448,49.48l-4-2Z" transform="translate(-8.87 -7.55)"/><path class="cls-7" d="M542,85.51l-3.08-2.05,3,1.12C542,84.89,542,85.2,542,85.51Z" transform="translate(-8.87 -7.55)"/><path class="cls-7" d="M455,53.48l-3.16-2Z" transform="translate(-8.87 -7.55)"/><path class="cls-7" d="M524,77.49l-3.21-1Z" transform="translate(-8.87 -7.55)"/><path class="cls-7" d="M484,65.49l-3.24-1Z" transform="translate(-8.87 -7.55)"/><path class="cls-7" d="M504,71.49l-3-1Z" transform="translate(-8.87 -7.55)"/><path class="cls-7" d="M500.13,70.5l-3.38-1Z" transform="translate(-8.87 -7.55)"/><path class="cls-7" d="M443,46.48l-3-1Z" transform="translate(-8.87 -7.55)"/><path class="cls-7" d="M457.17,54.49l-2.15-1Z" transform="translate(-8.87 -7.55)"/><path class="cls-7" d="M451.38,51.47l-2.37-1Z" transform="translate(-8.87 -7.55)"/><path class="cls-5" d="M444,42.5l-1.05.74L444,42.5Z" transform="translate(-8.87 -7.55)"/><path class="cls-7" d="M449,50.48l-1-1Z" transform="translate(-8.87 -7.55)"/><path class="cls-7" d="M444,47.48c-.33-.34-.67-.67-1-1Z" transform="translate(-8.87 -7.55)"/><path class="cls-5" d="M431,35.52l-.42.39.4-.42Z" transform="translate(-8.87 -7.55)"/><path class="cls-4" d="M244,114.55l4-2Z" transform="translate(-8.87 -7.55)"/><path class="cls-4" d="M238,117.55l3.25-2Z" transform="translate(-8.87 -7.55)"/><path class="cls-4" d="M236,118.54l2-1Z" transform="translate(-8.87 -7.55)"/><path class="cls-4" d="M241.88,115.58l2.16-1Z" transform="translate(-8.87 -7.55)"/><path class="cls-5" d="M521.68,65.89l.36-.14.11.55a1,1,0,0,1-.39-.08C521.69,66.17,521.71,66,521.68,65.89Z" transform="translate(-8.87 -7.55)"/><path class="cls-5" d="M535,73.49l1,0-.07.07-1,0Z" transform="translate(-8.87 -7.55)"/><path class="cls-7" d="M535,73.51l1,0Z" transform="translate(-8.87 -7.55)"/><path class="cls-5" d="M459,26.49l-.22.42c.07-.14.15-.27.23-.41Z" transform="translate(-8.87 -7.55)"/><path class="cls-4" d="M551,97.49l.42-.42c0,.09,0,.22-.06.27a1.8,1.8,0,0,1-.34.17Z" transform="translate(-8.87 -7.55)"/><path class="cls-5" d="M234,142.55c.65,1.21,1.3,2.41,1.81,3.34L223,148.51C225.6,144.5,229.74,143.38,234,142.55Z" transform="translate(-8.87 -7.55)"/><path class="cls-7" d="M552,110.46l-1-.94,1-1C552,109.15,552,109.81,552,110.46Z" transform="translate(-8.87 -7.55)"/><path class="cls-6" d="M410.28,255.66l-18.63,26.1C388.42,274,400.76,256.84,410.28,255.66Z" transform="translate(-8.87 -7.55)"/><path class="cls-6" d="M289.9,285.82c-4.26-6.3-8.48-12.63-12.82-18.88-2.15-3.1-4.53-6.05-6.79-9,8-.6,19.79,16.26,19.47,27.85Z" transform="translate(-8.87 -7.55)"/><path class="cls-6" d="M289.76,285.75l.21-.17-.08.24Z" transform="translate(-8.87 -7.55)"/><path class="cls-8" d="M589.93,360.61l.76-.16-.11.68-.57-.65Z" transform="translate(-8.87 -7.55)"/><path class="cls-7" d="M414.06,129.44l23.77,5.17-.51,2.28c-6.12-1.4-12.28-2.67-18.34-4.31-1.82-.48-3.37-2-5-3Z" transform="translate(-8.87 -7.55)"/><path class="cls-7" d="M454.69,141.79l-15.18-4.18C440.53,135.14,448.74,136.83,454.69,141.79Z" transform="translate(-8.87 -7.55)"/><path class="cls-5" d="M355,106.59l9,1.87C360.66,109.48,357.08,111.61,355,106.59Z" transform="translate(-8.87 -7.55)"/><path class="cls-5" d="M369,109.57l3,.88-1.26,1.69Z" transform="translate(-8.87 -7.55)"/><path class="cls-5" d="M373,110.49l2,.11c-.23.85-.47,1.7-.7,2.55l-.77-.06Z" transform="translate(-8.87 -7.55)"/><path class="cls-7" d="M457.72,141.78h1.55v.4h-1.55Z" transform="translate(-8.87 -7.55)"/><path class="cls-5" d="M365,108.51l2.06.17Z" transform="translate(-8.87 -7.55)"/><path class="cls-5" d="M425,122.46l2.91.1Z" transform="translate(-8.87 -7.55)"/><path class="cls-4" d="M495.78,85.65l2.47-.88.36.84-2.39,1Z" transform="translate(-8.87 -7.55)"/><path class="cls-4" d="M458,69.52l-.47.42.41-.47Z" transform="translate(-8.87 -7.55)"/><path class="cls-4" d="M458,69.47l.26-.41c-.07.16-.13.31-.2.46Z" transform="translate(-8.87 -7.55)"/><path class="cls-4" d="M377,72.54c6.51,1.69,13,3.32,19.5,5.13.64.18,1,1.42,1.45,2.17Z" transform="translate(-8.87 -7.55)"/><path class="cls-4" d="M318.66,54.63l-.67.46-.48-.94c.26-.09.57-.31.77-.23S318.53,54.37,318.66,54.63Z" transform="translate(-8.87 -7.55)"/><path class="cls-4" d="M332,54.5h-1c.12-.44.25-.88.5-1.8Z" transform="translate(-8.87 -7.55)"/><path class="cls-4" d="M439,118.5l.23-.41-.23.41Z" transform="translate(-8.87 -7.55)"/><path class="cls-7" d="M495,61.49l-.22.42.24-.4Z" transform="translate(-8.87 -7.55)"/><path class="cls-7" d="M342,61.49l.43.24-.45-.22Z" transform="translate(-8.87 -7.55)"/></svg>